<svg width="48" height="48" viewBox="0 0 48 48" fill="none" xmlns="http://www.w3.org/2000/svg">
<g clip-path="url(#clip0_399_236)">
<path d="M37.5726 47.4991H10.4927V21.7288H12.465V45.5267H35.6163V22.1491H37.5726V47.4991Z" fill="#676767"/>
<path d="M42.7296 28.3086L37.5077 25.1721L38.5101 23.4907L41.986 25.5763L45.4619 19.3358L39.6095 14.3725C38.2352 13.2085 36.667 12.3677 34.9372 11.8666L30.8146 10.9774V11.8181C30.8146 15.6012 27.7428 18.6729 23.9597 18.6729C20.1766 18.6729 17.1049 15.6012 17.1049 11.8181V10.9774L13.0146 11.8666C11.2848 12.3677 9.71649 13.2085 8.34234 14.3725L2.48973 19.3358L5.96566 25.5763L9.44159 23.4907L10.444 25.1721L5.23819 28.3086L0 18.8831L7.08115 12.869C8.6817 11.5109 10.5086 10.5409 12.5133 9.95888L12.578 9.94271L19.0933 8.53613V11.8181C19.0933 14.518 21.292 16.7167 23.9919 16.7167C26.6918 16.7167 28.8905 14.518 28.8905 11.8181V8.53613L35.4867 9.9588C37.4914 10.5408 39.3345 11.5108 40.9188 12.8689L48 18.8831L42.7296 28.3086Z" fill="#676767"/>
<path d="M25.172 11.22L23.2158 11.123L23.3775 8.01891H24.3152C25.269 8.01891 26.1582 7.11356 26.1582 6.17587V4.20347C26.1582 3.24961 25.3822 2.45746 24.4122 2.45746C23.4583 2.45746 22.6662 3.23351 22.6662 4.20347H20.71C20.7099 2.16645 22.3751 0.501221 24.4121 0.501221C26.4492 0.501221 28.1144 2.16645 28.1144 4.20347V6.1597C28.1144 7.87345 26.8533 9.39314 25.2366 9.84578L25.172 11.22Z" fill="#676767"/>
<path d="M20.1441 12.7559L19.8208 10.8159C20.6453 10.6865 21.5022 10.6057 22.3752 10.6057H26.2068C26.8859 10.6057 27.5649 10.6542 28.2116 10.7351L27.9691 12.6751C27.3871 12.5943 26.8051 12.5619 26.2069 12.5619H22.3753C21.6153 12.5781 20.8717 12.6427 20.1441 12.7559Z" fill="#676767"/>
</g>
<defs>
<clipPath id="clip0_399_236">
<rect width="48" height="48" fill="white"/>
</clipPath>
</defs>
</svg>
