<svg width="45" height="48" viewBox="0 0 45 48" fill="none" xmlns="http://www.w3.org/2000/svg">
<path d="M44.9865 33.627C44.942 33.0458 44.7795 32.4798 44.509 31.9635C44.2384 31.4472 43.8655 30.9914 43.413 30.624C42.5213 29.8996 41.3832 29.5499 40.2386 29.6486C39.0941 29.7472 38.0326 30.2865 37.278 31.1527L32.082 37.1978C32.0449 36.0365 31.5564 34.9355 30.7203 34.1288C29.8841 33.3221 28.7663 32.8733 27.6045 32.8778H23.3258C21.528 31.4925 18.7305 30.6787 15.6908 30.6787C13.3637 30.6219 11.0608 31.1601 9 32.2425V31.5C9 31.1022 8.84196 30.7206 8.56066 30.4393C8.27936 30.158 7.89782 30 7.5 30H1.5C1.10218 30 0.720644 30.158 0.43934 30.4393C0.158035 30.7206 0 31.1022 0 31.5V46.5C0 46.8978 0.158035 47.2794 0.43934 47.5607C0.720644 47.842 1.10218 48 1.5 48H7.5C7.89782 48 8.27936 47.842 8.56066 47.5607C8.84196 47.2794 9 46.8978 9 46.5V44.6753H11.3663C13.0353 44.6732 14.6877 45.0073 16.2248 45.6577C18.131 46.4637 20.1799 46.8776 22.2495 46.875H31.6028C32.6609 46.8762 33.7074 46.6535 34.6734 46.2215C35.6393 45.7896 36.503 45.158 37.2075 44.3685L43.908 36.8295C44.2957 36.3968 44.5913 35.8898 44.7767 35.3392C44.9621 34.7886 45.0335 34.2061 44.9865 33.627ZM6 45H3V33H6V45ZM41.6647 34.8375L34.965 42.375C34.5421 42.848 34.0239 43.2262 33.4444 43.4846C32.8649 43.743 32.2372 43.8758 31.6028 43.8743H22.2495C20.5802 43.8762 18.9276 43.542 17.3903 42.8918C15.4843 42.0857 13.4356 41.6717 11.3663 41.6745H9V36.5775C9 35.3955 11.607 33.6787 15.69 33.6787C18.1995 33.6787 20.58 34.3853 21.7598 35.478C22.0372 35.7351 22.4015 35.8779 22.7798 35.8778H27.6045C27.9904 35.8721 28.3628 36.0198 28.6401 36.2883C28.9173 36.5568 29.0768 36.9243 29.0835 37.3102V38.01H20.9025C20.5047 38.01 20.1231 38.168 19.8418 38.4493C19.5605 38.7306 19.4025 39.1122 19.4025 39.51C19.4025 39.9078 19.5605 40.2894 19.8418 40.5707C20.1231 40.852 20.5047 41.01 20.9025 41.01H32.0715C32.2875 41.0101 32.5011 40.9634 32.6974 40.8734C32.8938 40.7833 33.0684 40.6518 33.2093 40.488L39.552 33.108C39.7932 32.832 40.1321 32.6605 40.4974 32.6297C40.8626 32.5989 41.2255 32.7112 41.5095 32.943C41.6485 33.0553 41.7632 33.1947 41.8465 33.3528C41.9298 33.5109 41.98 33.6844 41.994 33.8625C42.0082 34.0389 41.9863 34.2164 41.9296 34.384C41.8728 34.5517 41.7825 34.706 41.664 34.8375H41.6647ZM27.3097 19.1895C27.591 19.4708 27.7489 19.8523 27.7489 20.25C27.7489 20.6477 27.591 21.0292 27.3097 21.3105L22.8097 25.8105C22.5285 26.0915 22.1472 26.2493 21.7496 26.2493C21.3521 26.2493 20.9708 26.0915 20.6895 25.8105L18.4395 23.5605C18.1663 23.2776 18.0151 22.8987 18.0185 22.5054C18.0219 22.1121 18.1797 21.7359 18.4578 21.4578C18.7359 21.1797 19.1121 21.0219 19.5054 21.0185C19.8987 21.0151 20.2776 21.1663 20.5605 21.4395L21.75 22.6275L25.1895 19.1887C25.4708 18.9075 25.8523 18.7496 26.25 18.7496C26.6477 18.7496 27.0292 18.9075 27.3105 19.1887L27.3097 19.1895ZM4.656 17.955C5.51442 18.4601 6.50812 18.6873 7.50075 18.6052V26.25C7.50075 26.6478 7.65879 27.0294 7.94009 27.3107C8.22139 27.592 8.60293 27.75 9.00075 27.75C9.39857 27.75 9.78011 27.592 10.0614 27.3107C10.3427 27.0294 10.5007 26.6478 10.5007 26.25V17.439L21.768 11.1292C21.992 11.0046 22.2441 10.9392 22.5004 10.9392C22.7567 10.9392 23.0088 11.0046 23.2327 11.1292L34.5 17.439V27C34.5 27.3978 34.658 27.7794 34.9393 28.0607C35.2206 28.342 35.6022 28.5 36 28.5C36.3978 28.5 36.7794 28.342 37.0607 28.0607C37.342 27.7794 37.5 27.3978 37.5 27V18.606C37.629 18.6165 37.7572 18.6307 37.8862 18.6307C39.1761 18.6258 40.4116 18.1106 41.3229 17.1978C42.2342 16.285 42.7472 15.0486 42.75 13.7587C42.7491 12.9695 42.5407 12.1944 42.1459 11.5111C41.7509 10.8278 41.1834 10.2603 40.5 9.8655V4.5C40.5 3.90905 40.3836 3.32389 40.1575 2.77792C39.9313 2.23196 39.5998 1.73588 39.182 1.31802C38.7641 0.900156 38.268 0.568688 37.7221 0.342542C37.1761 0.116396 36.591 0 36 0C35.409 0 34.8239 0.116396 34.2779 0.342542C33.732 0.568688 33.2359 0.900156 32.818 1.31802C32.4002 1.73588 32.0687 2.23196 31.8425 2.77792C31.6164 3.32389 31.5 3.90905 31.5 4.5V4.82025L24.6982 1.0125C24.0257 0.638902 23.269 0.442852 22.4996 0.442852C21.7303 0.442852 20.9736 0.638902 20.301 1.0125L4.551 9.8325C3.85349 10.2238 3.27271 10.7937 2.86832 11.4837C2.46394 12.1738 2.25052 12.959 2.25 13.7587C2.24546 14.6082 2.46553 15.4438 2.88793 16.1809C3.31032 16.9179 3.92001 17.5302 4.65525 17.9557L4.656 17.955ZM34.5 4.5C34.5 4.10218 34.658 3.72064 34.9393 3.43934C35.2206 3.15804 35.6022 3 36 3C36.3978 3 36.7794 3.15804 37.0607 3.43934C37.342 3.72064 37.5 4.10218 37.5 4.5V8.181L34.5 6.501V4.5ZM6.01725 12.45L21.7673 3.63C21.9914 3.50542 22.2436 3.44004 22.5 3.44004C22.7564 3.44004 23.0086 3.50542 23.2327 3.63L38.9827 12.45C39.2154 12.5803 39.4092 12.7702 39.544 13.0002C39.6789 13.2303 39.75 13.4921 39.75 13.7587C39.75 14.0841 39.6649 14.4038 39.5032 14.686C39.3414 14.9683 39.1087 15.2034 38.828 15.3679C38.5473 15.5324 38.2285 15.6207 37.9032 15.6239C37.5779 15.6271 37.2574 15.5452 36.9735 15.3862L24.6975 8.511C24.0249 8.1374 23.2682 7.94135 22.4989 7.94135C21.7295 7.94135 20.9728 8.1374 20.3002 8.511L8.02575 15.3848C7.74196 15.5435 7.4216 15.6253 7.09646 15.622C6.77131 15.6187 6.45267 15.5305 6.17213 15.3661C5.8916 15.2017 5.65892 14.9668 5.49716 14.6847C5.33541 14.4026 5.25021 14.0832 5.25 13.758C5.25015 13.4915 5.32131 13.2298 5.45616 12.9999C5.59102 12.77 5.78469 12.5802 6.01725 12.45Z" fill="#676767"/>
</svg>
