<svg width="48" height="45" viewBox="0 0 48 45" fill="none" xmlns="http://www.w3.org/2000/svg">
<path d="M11.9697 31.1143C11.6125 31.4892 11.6269 32.0826 12.0018 32.4398C12.3767 32.797 12.97 32.7826 13.3272 32.4077C13.6844 32.0328 13.6701 31.4395 13.2952 31.0823C12.9202 30.7251 12.3268 30.7394 11.9697 31.1143Z" fill="#676767"/>
<path d="M43.7739 4.22618C38.3553 -1.19228 29.6695 -1.40032 24 3.602C18.3306 -1.40032 9.64481 -1.19247 4.22606 4.22618C-1.40869 9.86112 -1.40869 19.0297 4.22606 24.6645L9.01725 29.4557C9.38428 29.8226 9.97903 29.8226 10.3461 29.4557C10.713 29.0888 10.713 28.4938 10.3461 28.1269L5.55487 23.3357C0.652687 18.4336 0.652687 10.4572 5.55487 5.55509C10.4572 0.652903 18.4336 0.652997 23.3355 5.55509C23.7025 5.92193 24.2973 5.92193 24.6643 5.55509C29.5662 0.653091 37.5428 0.652903 42.4449 5.55509C47.3471 10.4573 47.3471 18.4337 42.4449 23.3357L24 41.7808L16.297 34.0779C15.93 33.711 15.3352 33.711 14.9682 34.0779C14.6013 34.4448 14.6013 35.0397 14.9682 35.4067L23.3356 43.7741C23.5192 43.9575 23.7595 44.0492 24 44.0492C24.2405 44.0492 24.4809 43.9574 24.6644 43.7741L43.7739 24.6645C49.4087 19.0297 49.4087 9.86112 43.7739 4.22618Z" fill="#676767"/>
<path d="M20.6836 18.3146L16.678 22.3201C14.4763 24.5219 14.4763 28.1045 16.678 30.3064C17.7789 31.4073 19.225 31.9578 20.6711 31.9578C21.8417 31.9578 23.0123 31.5971 23.9998 30.8758C26.2073 32.4882 29.3295 32.2985 31.3216 30.3065C33.5233 28.1046 33.5233 24.522 31.3216 22.3202L27.316 18.3147C25.4874 16.486 22.5122 16.486 20.6836 18.3146ZM29.9928 23.649C31.4618 25.118 31.4618 27.5084 29.9928 28.9775C28.5237 30.4468 26.1333 30.4468 24.6642 28.9775C24.2972 28.6107 23.7024 28.6107 23.3354 28.9775C21.8664 30.4467 19.476 30.4469 18.0068 28.9775C16.5378 27.5084 16.5378 25.118 18.0068 23.649L22.0124 19.6434C22.5603 19.0954 23.28 18.8215 23.9998 18.8215C24.7195 18.8215 25.4393 19.0954 25.9872 19.6434L29.9928 23.649ZM28.5541 7.64648C26.5704 7.64648 24.9567 9.53789 24.9567 11.8628C24.9567 14.1877 26.5704 16.0791 28.5541 16.0791C30.5378 16.0791 32.1515 14.1877 32.1515 11.8628C32.1515 9.53789 30.5378 7.64648 28.5541 7.64648ZM28.5541 14.1999C27.6228 14.1999 26.8359 13.1296 26.8359 11.8628C26.8359 10.596 27.6228 9.5257 28.5541 9.5257C29.4854 9.5257 30.2723 10.596 30.2723 11.8628C30.2723 13.1295 29.4855 14.1999 28.5541 14.1999ZM34.5791 22.0969C36.2722 22.0969 37.6495 20.497 37.6495 18.5303C37.6495 16.5637 36.2722 14.9638 34.5791 14.9638C32.8862 14.9638 31.5088 16.5637 31.5088 18.5303C31.5088 20.4969 32.8862 22.0969 34.5791 22.0969ZM34.5791 16.8429C35.2248 16.8429 35.7703 17.6156 35.7703 18.5302C35.7703 19.4448 35.2248 20.2176 34.5791 20.2176C33.9335 20.2176 33.388 19.4448 33.388 18.5302C33.388 17.6156 33.9336 16.8429 34.5791 16.8429ZM13.4205 14.9638C11.7275 14.9638 10.3501 16.5637 10.3501 18.5303C10.3501 20.497 11.7275 22.0969 13.4205 22.0969C15.1134 22.0969 16.4908 20.497 16.4908 18.5303C16.4908 16.5637 15.1134 14.9638 13.4205 14.9638ZM13.4205 20.2177C12.7748 20.2177 12.2293 19.4449 12.2293 18.5303C12.2293 17.6157 12.7748 16.843 13.4205 16.843C14.0661 16.843 14.6116 17.6157 14.6116 18.5303C14.6116 19.4449 14.0661 20.2177 13.4205 20.2177ZM19.4455 7.64648C17.4619 7.64648 15.8482 9.53789 15.8482 11.8628C15.8482 14.1877 17.4619 16.0791 19.4455 16.0791C21.4292 16.0791 23.0429 14.1877 23.0429 11.8628C23.0429 9.53789 21.4291 7.64648 19.4455 7.64648ZM19.4455 14.1999C18.5142 14.1999 17.7274 13.1296 17.7274 11.8628C17.7274 10.596 18.5142 9.5257 19.4455 9.5257C20.3768 9.5257 21.1637 10.596 21.1637 11.8628C21.1637 13.1295 20.3768 14.1999 19.4455 14.1999ZM41.9048 19.0155C42.3829 19.2007 42.9354 18.9559 43.1204 18.4786C44.2218 15.6346 43.9835 12.4877 42.4666 9.84502C42.2083 9.39492 41.6342 9.23948 41.184 9.49777C40.7339 9.75605 40.5785 10.3304 40.8368 10.7804C42.0518 12.8973 42.2504 15.5214 41.3679 17.7999C41.1805 18.284 41.4209 18.8282 41.9048 19.0155Z" fill="#676767"/>
</svg>
