<svg width="44" height="36" viewBox="0 0 44 36" fill="none" xmlns="http://www.w3.org/2000/svg">
<path d="M22 7C19.5277 7 17.111 7.73311 15.0554 9.10663C12.9998 10.4801 11.3976 12.4324 10.4515 14.7165C9.50542 17.0005 9.25787 19.5139 9.74019 21.9386C10.2225 24.3634 11.413 26.5907 13.1612 28.3388C14.9093 30.087 17.1366 31.2775 19.5614 31.7598C21.9861 32.2421 24.4995 31.9946 26.7836 31.0485C29.0676 30.1024 31.0199 28.5002 32.3934 26.4446C33.7669 24.389 34.5 21.9723 34.5 19.5C34.4963 16.1859 33.1782 13.0087 30.8348 10.6653C28.4914 8.32186 25.3141 7.00371 22 7ZM22 30C19.9233 30 17.8932 29.3842 16.1665 28.2304C14.4398 27.0767 13.094 25.4368 12.2993 23.5182C11.5046 21.5996 11.2966 19.4884 11.7018 17.4516C12.1069 15.4148 13.1069 13.5438 14.5754 12.0754C16.0438 10.6069 17.9148 9.6069 19.9516 9.20175C21.9884 8.79661 24.0996 9.00454 26.0182 9.79926C27.9368 10.594 29.5767 11.9398 30.7304 13.6665C31.8842 15.3932 32.5 17.4233 32.5 19.5C32.4968 22.2838 31.3896 24.9527 29.4211 26.9211C27.4527 28.8896 24.7838 29.9968 22 30Z" fill="#676767"/>
<path d="M22 11C20.3189 11 18.6755 11.4985 17.2777 12.4325C15.8798 13.3665 14.7904 14.694 14.147 16.2472C13.5037 17.8004 13.3354 19.5094 13.6633 21.1583C13.9913 22.8071 14.8008 24.3217 15.9896 25.5104C17.1783 26.6992 18.6929 27.5087 20.3417 27.8367C21.9906 28.1646 23.6996 27.9963 25.2528 27.353C26.806 26.7096 28.1335 25.6202 29.0675 24.2223C30.0015 22.8245 30.5 21.1811 30.5 19.5C30.4974 17.2465 29.601 15.086 28.0075 13.4925C26.414 11.899 24.2535 11.0026 22 11ZM22 26C20.7144 26 19.4577 25.6188 18.3888 24.9046C17.3199 24.1903 16.4868 23.1752 15.9948 21.9874C15.5028 20.7997 15.3741 19.4928 15.6249 18.2319C15.8757 16.971 16.4948 15.8128 17.4038 14.9038C18.3129 13.9948 19.471 13.3757 20.7319 13.1249C21.9928 12.8741 23.2997 13.0028 24.4874 13.4948C25.6752 13.9868 26.6903 14.8199 27.4046 15.8888C28.1188 16.9577 28.5 18.2144 28.5 19.5C28.4979 21.2233 27.8124 22.8753 26.5939 24.0939C25.3753 25.3124 23.7233 25.9979 22 26Z" fill="#676767"/>
<path d="M22 22C21.337 22 20.7011 21.7366 20.2322 21.2678C19.7634 20.7989 19.5 20.163 19.5 19.5C19.5 19.2348 19.3946 18.9804 19.2071 18.7929C19.0196 18.6054 18.7652 18.5 18.5 18.5C18.2348 18.5 17.9804 18.6054 17.7929 18.7929C17.6054 18.9804 17.5 19.2348 17.5 19.5C17.5013 20.6931 17.9759 21.8369 18.8195 22.6805C19.6631 23.5241 20.8069 23.9987 22 24C22.2652 24 22.5196 23.8946 22.7071 23.7071C22.8946 23.5196 23 23.2652 23 23C23 22.7348 22.8946 22.4804 22.7071 22.2929C22.5196 22.1054 22.2652 22 22 22Z" fill="#676767"/>
<path d="M39 6H33.07C32.9054 6.00003 32.7434 5.95942 32.5982 5.8818C32.4531 5.80417 32.3293 5.69192 32.238 5.555L30.02 2.227C29.5638 1.54153 28.9451 0.979508 28.2192 0.590961C27.4932 0.202415 26.6824 -0.000596623 25.859 1.31704e-06H18.141C17.3176 -0.000596623 16.5068 0.202415 15.7808 0.590961C15.0549 0.979508 14.4362 1.54153 13.98 2.227L12 5.2V5C12 4.46957 11.7893 3.96086 11.4142 3.58579C11.0391 3.21072 10.5304 3 10 3H7C6.46957 3 5.96086 3.21072 5.58579 3.58579C5.21071 3.96086 5 4.46957 5 5V6C3.67441 6.00159 2.40356 6.52888 1.46622 7.46622C0.528882 8.40356 0.00158786 9.67441 0 11V31C0.00158786 32.3256 0.528882 33.5964 1.46622 34.5338C2.40356 35.4711 3.67441 35.9984 5 36H39C40.3256 35.9984 41.5964 35.4711 42.5338 34.5338C43.4711 33.5964 43.9984 32.3256 44 31V11C43.9984 9.67441 43.4711 8.40356 42.5338 7.46622C41.5964 6.52888 40.3256 6.00159 39 6ZM7 5H10V6H7V5ZM42 31C42 31.7957 41.6839 32.5587 41.1213 33.1213C40.5587 33.6839 39.7957 34 39 34H5C4.20435 34 3.44129 33.6839 2.87868 33.1213C2.31607 32.5587 2 31.7957 2 31V11C2 10.2044 2.31607 9.44129 2.87868 8.87868C3.44129 8.31607 4.20435 8 5 8H10.93C11.4245 8.00062 11.9116 7.87898 12.3477 7.64589C12.7839 7.4128 13.1557 7.0755 13.43 6.664L15.649 3.336C15.9226 2.92563 16.2931 2.58903 16.7277 2.356C17.1624 2.12297 17.6478 2.0007 18.141 2H25.859C26.3535 1.99938 26.8406 2.12102 27.2767 2.35411C27.7129 2.5872 28.0847 2.9245 28.359 3.336L30.578 6.664C30.8516 7.07437 31.2221 7.41097 31.6567 7.644C32.0914 7.87703 32.5768 7.99931 33.07 8H39C39.7957 8 40.5587 8.31607 41.1213 8.87868C41.6839 9.44129 42 10.2044 42 11V31Z" fill="#676767"/>
</svg>
