<svg width="48" height="48" viewBox="0 0 48 48" fill="none" xmlns="http://www.w3.org/2000/svg">
<path d="M47.2956 12.7669C46.0266 12.7669 44.9942 11.7346 44.9942 10.4655C44.9942 10.373 44.976 10.2813 44.9406 10.1959C44.9052 10.1104 44.8533 10.0327 44.7879 9.96728C44.7224 9.90185 44.6448 9.84996 44.5593 9.81456C44.4738 9.77915 44.3822 9.76094 44.2897 9.76095C44.1971 9.76094 44.1055 9.77915 44.02 9.81456C43.9345 9.84996 43.8569 9.90185 43.7915 9.96728C43.726 10.0327 43.6741 10.1104 43.6387 10.1959C43.6033 10.2813 43.5851 10.373 43.5851 10.4655C43.5851 11.7345 42.5528 12.7669 41.2838 12.7669C40.8946 12.7669 40.5792 13.0822 40.5792 13.4714C40.5792 13.8605 40.8946 14.1759 41.2838 14.1759C42.5527 14.1759 43.5851 15.2083 43.5851 16.4773C43.5851 16.5698 43.6033 16.6614 43.6387 16.7469C43.6741 16.8324 43.726 16.9101 43.7915 16.9755C43.8569 17.0409 43.9345 17.0928 44.02 17.1282C44.1055 17.1636 44.1971 17.1818 44.2897 17.1818C44.3822 17.1818 44.4738 17.1636 44.5593 17.1282C44.6448 17.0928 44.7224 17.0409 44.7879 16.9755C44.8533 16.9101 44.9052 16.8324 44.9406 16.7469C44.976 16.6614 44.9942 16.5698 44.9942 16.4773C44.9942 15.2083 46.0265 14.1759 47.2956 14.1759C47.6847 14.1759 48.0001 13.8605 48.0001 13.4714C48.0001 13.0822 47.6847 12.7669 47.2956 12.7669ZM44.2897 14.3043C44.0578 13.9845 43.7767 13.7034 43.4569 13.4714C43.7767 13.2394 44.0578 12.9583 44.2897 12.6385C44.5217 12.9583 44.8028 13.2394 45.1226 13.4714C44.8028 13.7034 44.5217 13.9845 44.2897 14.3043ZM6.71634 12.7669C5.44744 12.7669 4.41497 11.7346 4.41497 10.4655C4.41497 10.373 4.39675 10.2813 4.36134 10.1959C4.32593 10.1104 4.27404 10.0327 4.20862 9.9673C4.14319 9.90188 4.06553 9.84999 3.98005 9.81458C3.89457 9.77917 3.80296 9.76095 3.71044 9.76095C3.61792 9.76095 3.5263 9.77917 3.44082 9.81458C3.35535 9.84999 3.27768 9.90188 3.21226 9.9673C3.14684 10.0327 3.09494 10.1104 3.05954 10.1959C3.02413 10.2813 3.00591 10.373 3.00591 10.4655C3.00591 11.7345 1.97344 12.7669 0.704531 12.7669C0.612011 12.7669 0.520397 12.7851 0.434919 12.8205C0.349441 12.8559 0.271774 12.9078 0.206352 12.9732C0.140931 13.0386 0.0890353 13.1163 0.0536293 13.2018C0.0182232 13.2873 0 13.3789 0 13.4714C0 13.5639 0.0182232 13.6555 0.0536293 13.741C0.0890353 13.8265 0.140931 13.9041 0.206352 13.9696C0.271774 14.035 0.349441 14.0869 0.434919 14.1223C0.520397 14.1577 0.612011 14.1759 0.704531 14.1759C1.97344 14.1759 3.00591 15.2083 3.00591 16.4773C3.00591 16.5698 3.02413 16.6614 3.05954 16.7469C3.09494 16.8324 3.14684 16.9101 3.21226 16.9755C3.27768 17.0409 3.35535 17.0928 3.44082 17.1282C3.5263 17.1636 3.61792 17.1818 3.71044 17.1818C3.80296 17.1818 3.89457 17.1636 3.98005 17.1282C4.06553 17.0928 4.14319 17.0409 4.20862 16.9755C4.27404 16.9101 4.32593 16.8324 4.36134 16.7469C4.39675 16.6614 4.41497 16.5698 4.41497 16.4773C4.41497 15.2083 5.44744 14.1759 6.71634 14.1759C6.80886 14.1759 6.90048 14.1577 6.98596 14.1223C7.07143 14.0869 7.1491 14.035 7.21452 13.9696C7.27994 13.9041 7.33184 13.8265 7.36725 13.741C7.40265 13.6555 7.42087 13.5639 7.42087 13.4714C7.42087 13.3789 7.40265 13.2873 7.36725 13.2018C7.33184 13.1163 7.27994 13.0386 7.21452 12.9732C7.1491 12.9078 7.07143 12.8559 6.98596 12.8205C6.90048 12.7851 6.80886 12.7669 6.71634 12.7669ZM3.71044 14.3043C3.47847 13.9845 3.19737 13.7034 2.87756 13.4714C3.19739 13.2394 3.4785 12.9583 3.71044 12.6385C3.9424 12.9583 4.2235 13.2394 4.54331 13.4714C4.22355 13.7034 3.94245 13.9845 3.71044 14.3043ZM27.7574 3.74923C26.074 3.74923 24.7045 2.37983 24.7045 0.696357C24.7024 0.510924 24.6272 0.333817 24.4953 0.203454C24.3634 0.0730919 24.1854 -1.23376e-05 24 1.56179e-09C23.8146 1.23407e-05 23.6366 0.0731402 23.5047 0.20352C23.3728 0.333901 23.2977 0.511018 23.2956 0.696451C23.2956 2.37983 21.926 3.74933 20.2427 3.74933C20.1502 3.74933 20.0586 3.76755 19.9731 3.80296C19.8876 3.83836 19.8099 3.89026 19.7445 3.95568C19.6791 4.0211 19.6272 4.09877 19.5918 4.18425C19.5564 4.26972 19.5382 4.36134 19.5382 4.45386C19.5382 4.54638 19.5564 4.63799 19.5918 4.72347C19.6272 4.80895 19.6791 4.88661 19.7445 4.95204C19.8099 5.01746 19.8876 5.06935 19.9731 5.10476C20.0586 5.14017 20.1502 5.15839 20.2427 5.15839C21.926 5.15839 23.2956 6.52789 23.2956 8.21126C23.2956 8.39812 23.3698 8.57732 23.5019 8.70944C23.634 8.84157 23.8132 8.9158 24.0001 8.9158C24.1869 8.9158 24.3661 8.84157 24.4983 8.70944C24.6304 8.57732 24.7046 8.39812 24.7046 8.21126C24.7046 6.52789 26.0741 5.15839 27.7575 5.15839C27.943 5.15624 28.1201 5.08105 28.2505 4.94914C28.3808 4.81723 28.454 4.63924 28.454 4.45376C28.4539 4.26829 28.3808 4.09031 28.2504 3.95841C28.12 3.82652 27.9429 3.75136 27.7574 3.74923ZM24.0001 5.80695C23.6512 5.26409 23.1897 4.8026 22.6468 4.45376C23.1897 4.10493 23.6512 3.64343 24.0001 3.10058C24.349 3.64341 24.8104 4.1049 25.3533 4.45376C24.8104 4.80263 24.349 5.26412 24.0001 5.80695ZM38.6678 23.7575L35.9273 15.9927C35.8268 15.7088 35.6409 15.463 35.395 15.2891C35.1492 15.1152 34.8555 15.0216 34.5544 15.0213H13.2579C12.9568 15.0216 12.6631 15.1151 12.4173 15.289C12.1715 15.463 11.9855 15.7087 11.885 15.9926L9.14447 23.7575C8.98528 24.2085 9.33122 24.6965 9.80878 24.6965H38.0035C38.1162 24.6965 38.2272 24.6694 38.3273 24.6177C38.4274 24.5659 38.5136 24.4908 38.5787 24.3989C38.6438 24.3069 38.6858 24.2006 38.7013 24.089C38.7169 23.9774 38.7054 23.8637 38.6678 23.7575ZM10.8045 23.2874L13.2136 16.4615C13.217 16.4525 13.223 16.4447 13.2309 16.4391C13.2388 16.4335 13.2482 16.4304 13.2578 16.4302H34.5544C34.5736 16.4302 34.5923 16.4435 34.5987 16.4616L37.0078 23.2874H10.8045ZM37.4326 33.0565C34.9306 33.0565 32.9708 34.3563 32.9708 36.0155C32.9708 37.6746 34.9306 38.9744 37.4326 38.9744C39.9346 38.9744 41.8944 37.6746 41.8944 36.0155C41.8944 34.3563 39.9346 33.0565 37.4326 33.0565ZM37.4326 37.5653C35.6853 37.5653 34.3797 36.7471 34.3797 36.0155C34.3797 35.2838 35.6852 34.4656 37.4326 34.4656C39.1799 34.4656 40.4855 35.2838 40.4855 36.0155C40.4855 36.7471 39.1799 37.5653 37.4326 37.5653ZM10.3797 33.0565C7.87772 33.0565 5.91788 34.3563 5.91788 36.0155C5.91788 37.6746 7.87772 38.9744 10.3797 38.9744C12.8817 38.9744 14.8416 37.6746 14.8416 36.0155C14.8416 34.3563 12.8817 33.0565 10.3797 33.0565ZM10.3797 37.5653C8.6325 37.5653 7.32684 36.7471 7.32684 36.0155C7.32684 35.2838 8.63241 34.4656 10.3797 34.4656C12.127 34.4656 13.4326 35.2838 13.4326 36.0155C13.4326 36.7471 12.127 37.5653 10.3797 37.5653Z" fill="#676767"/>
<path d="M46.4504 22.536H42.6931C42.5359 22.536 42.3833 22.5885 42.2595 22.6852C42.1357 22.7819 42.0477 22.9172 42.0096 23.0696L41.5147 25.0491L38.0534 15.2423C37.5308 13.7617 36.1247 12.7668 34.5545 12.7668H13.2581C11.6879 12.7668 10.2818 13.7617 9.75925 15.2424L6.298 25.0492L5.80309 23.0696C5.76498 22.9172 5.67702 22.7819 5.55319 22.6852C5.42935 22.5885 5.27676 22.536 5.11965 22.536H1.36225C1.17539 22.536 0.996192 22.6102 0.864067 22.7423C0.731942 22.8744 0.657715 23.0536 0.657715 23.2405V26.2464C0.657715 26.4333 0.731942 26.6125 0.864067 26.7446C0.996192 26.8767 1.17539 26.9509 1.36225 26.9509H5.25353L2.85175 30.3134C2.40105 30.942 2.15932 31.6965 2.16071 32.47V41.2757C2.16071 42.4959 2.75293 43.5802 3.66484 44.2568C3.66456 44.2651 3.66362 44.2732 3.66362 44.2816V46.536C3.66362 47.3388 4.31678 47.9919 5.11956 47.9919H9.62837C10.4312 47.9919 11.0843 47.3387 11.0843 46.536V44.9861H36.7281V46.536C36.7281 47.3388 37.3813 47.9919 38.1841 47.9919H42.6929C43.4957 47.9919 44.1488 47.3387 44.1488 46.536V44.2816C44.1488 44.2732 44.1479 44.2651 44.1476 44.2568C45.0595 43.5802 45.6517 42.4959 45.6517 41.2757V32.47C45.6517 31.6921 45.4127 30.9462 44.9606 30.3134L42.5588 26.9509H46.4502C46.5427 26.9509 46.6343 26.9327 46.7198 26.8973C46.8053 26.8619 46.883 26.81 46.9484 26.7446C47.0138 26.6792 47.0657 26.6015 47.1011 26.516C47.1365 26.4306 47.1547 26.3389 47.1547 26.2464V23.2405C47.1548 23.148 47.1366 23.0564 47.1012 22.9709C47.0658 22.8854 47.014 22.8077 46.9485 22.7423C46.8831 22.6768 46.8055 22.625 46.72 22.5896C46.6345 22.5542 46.5429 22.5359 46.4504 22.536ZM2.06678 25.5418V23.9449H4.56953L4.96871 25.5418H2.06678ZM9.67543 46.536C9.67543 46.5421 9.67422 46.5482 9.67186 46.5539C9.6695 46.5596 9.66604 46.5648 9.66168 46.5692C9.65732 46.5735 9.65214 46.577 9.64644 46.5794C9.64074 46.5817 9.63463 46.5829 9.62846 46.5829H5.11965C5.1072 46.5829 5.09527 46.578 5.08647 46.5692C5.07766 46.5604 5.07271 46.5484 5.07268 46.536V44.9861H9.67543V46.536ZM42.7399 46.536C42.7399 46.5484 42.735 46.5604 42.7262 46.5692C42.7173 46.578 42.7054 46.5829 42.693 46.5829H38.1842C38.1717 46.5829 38.1598 46.578 38.151 46.5692C38.1422 46.5604 38.1372 46.5484 38.1372 46.536V44.9861H42.7399V46.536ZM41.9416 43.577H5.87106C4.84778 43.577 3.97871 42.9056 3.6804 41.9802H44.1321C43.8338 42.9056 42.9648 43.577 41.9416 43.577ZM29.965 35.9685V37.5653H17.8476V35.9685H29.965ZM17.9583 34.5594C18.2567 33.634 19.1256 32.9626 20.149 32.9626H27.6637C28.687 32.9626 29.5561 33.634 29.8544 34.5594H17.9583ZM29.965 38.9743V40.5711H17.8476V38.9743H29.965ZM43.8143 31.1323C44.0939 31.5222 44.2438 31.9901 44.2429 32.4699V40.5712H31.3741V35.2639C31.3741 33.218 29.7095 31.5536 27.6637 31.5536H20.149C18.1031 31.5536 16.4387 33.2181 16.4387 35.2639V40.5712H3.56968V32.4699C3.56881 31.9901 3.71875 31.5222 3.99831 31.1323L6.98509 26.9508H32.9238C33.0164 26.9509 33.108 26.9326 33.1935 26.8972C33.2789 26.8618 33.3566 26.8099 33.422 26.7445C33.4875 26.6791 33.5394 26.6014 33.5748 26.5159C33.6102 26.4305 33.6284 26.3388 33.6284 26.2463C33.6284 26.1538 33.6102 26.0622 33.5748 25.9767C33.5394 25.8912 33.4875 25.8135 33.422 25.7481C33.3566 25.6827 33.2789 25.6308 33.1935 25.5954C33.108 25.56 33.0164 25.5418 32.9238 25.5418H7.61828L11.0879 15.7113C11.4121 14.793 12.2841 14.1758 13.2581 14.1758H34.5546C35.5285 14.1758 36.4006 14.7929 36.7248 15.7113L40.1943 25.5418H35.9297C35.8372 25.5418 35.7456 25.56 35.6601 25.5954C35.5746 25.6308 35.497 25.6827 35.4315 25.7481C35.3661 25.8135 35.3142 25.8912 35.2788 25.9767C35.2434 26.0622 35.2252 26.1538 35.2252 26.2463C35.2252 26.3388 35.2434 26.4305 35.2788 26.5159C35.3142 26.6014 35.3661 26.6791 35.4315 26.7445C35.497 26.8099 35.5746 26.8618 35.6601 26.8972C35.7456 26.9326 35.8372 26.9509 35.9297 26.9508H40.8275L43.8143 31.1323ZM45.7458 25.5418H42.8438L43.243 23.9449H45.7458V25.5418Z" fill="#676767"/>
<path d="M12.6342 30.802H8.12543C7.93858 30.802 7.75938 30.8762 7.62725 31.0084C7.49513 31.1405 7.4209 31.3197 7.4209 31.5065C7.4209 31.6934 7.49513 31.8726 7.62725 32.0047C7.75938 32.1368 7.93858 32.2111 8.12543 32.2111H12.6342C12.8211 32.2111 13.0003 32.1368 13.1324 32.0047C13.2645 31.8726 13.3388 31.6934 13.3388 31.5065C13.3388 31.3197 13.2645 31.1405 13.1324 31.0084C13.0003 30.8762 12.8211 30.802 12.6342 30.802ZM39.6871 30.802H35.1783C34.7892 30.802 34.4738 31.1174 34.4738 31.5065C34.4738 31.8957 34.7892 32.2111 35.1783 32.2111H39.6871C40.0763 32.2111 40.3917 31.8957 40.3917 31.5065C40.3917 31.1174 40.0763 30.802 39.6871 30.802Z" fill="#676767"/>
</svg>
