<svg width="48" height="48" viewBox="0 0 48 48" fill="none" xmlns="http://www.w3.org/2000/svg">
<path d="M38.4129 28.4252C38.1761 28.4253 37.9444 28.3564 37.7462 28.2267C37.548 28.0971 37.392 27.9124 37.2973 27.6953C37.2026 27.4783 37.1733 27.2383 37.2131 27.0048C37.2528 26.7714 37.3598 26.5546 37.521 26.3811C37.6662 26.2246 41.1299 22.5452 46.7772 22.5452C47.0998 22.5452 47.4092 22.6733 47.6372 22.9014C47.8653 23.1295 47.9935 23.4388 47.9935 23.7614C47.9935 24.0839 47.8653 24.3933 47.6372 24.6214C47.4092 24.8495 47.0998 24.9776 46.7772 24.9776C42.2245 24.9776 39.3332 28.0044 39.3048 28.0352C39.1913 28.1584 39.0534 28.2567 38.8998 28.3238C38.7463 28.391 38.5805 28.4255 38.4129 28.4252Z" fill="#676767"/>
<path d="M17.1391 33.2544C16.925 33.2542 16.7148 33.1974 16.5297 33.0899C16.3445 32.9823 16.1911 32.8279 16.0848 32.642C15.9785 32.4562 15.9232 32.2456 15.9243 32.0315C15.9255 31.8174 15.9832 31.6075 16.0915 31.4228C19.2269 26.0763 23.0288 23.0366 27.3902 22.3863C33.8483 21.4247 39.0212 26.112 39.2385 26.3123C39.3562 26.4205 39.4513 26.5509 39.5185 26.6959C39.5857 26.8409 39.6237 26.9978 39.6302 27.1575C39.6368 27.3172 39.6118 27.4766 39.5567 27.6267C39.5016 27.7767 39.4175 27.9145 39.3091 28.032C39.2008 28.1495 39.0703 28.2445 38.9252 28.3116C38.7801 28.3786 38.6232 28.4165 38.4635 28.4229C38.3038 28.4293 38.1444 28.4041 37.9944 28.3489C37.8444 28.2936 37.7068 28.2094 37.5893 28.1009C37.5464 28.0612 33.0285 23.9958 27.7307 24.7952C24.1404 25.3369 20.9304 27.9809 18.1891 32.6536C18.0817 32.8367 17.9283 32.9884 17.7441 33.0938C17.5599 33.1992 17.3513 33.2546 17.1391 33.2544ZM31.6615 41.5863C30.095 41.5863 28.321 41.3252 26.3604 40.6425C26.0579 40.5344 25.8105 40.311 25.6721 40.021C25.5337 39.7311 25.5155 39.3983 25.6216 39.095C25.7277 38.7918 25.9494 38.5428 26.2383 38.4024C26.5272 38.262 26.86 38.2415 27.1639 38.3455C34.9347 41.0504 39.1193 36.0963 39.1639 36.046C39.2624 35.9147 39.3864 35.8047 39.5286 35.7225C39.6707 35.6404 39.828 35.5879 39.9909 35.5682C40.1539 35.5485 40.3192 35.5619 40.4768 35.6078C40.6344 35.6536 40.7811 35.7309 40.908 35.835C41.035 35.939 41.1396 36.0677 41.2155 36.2133C41.2914 36.3588 41.337 36.5182 41.3497 36.6819C41.3623 36.8455 41.3417 37.0101 41.2891 37.1656C41.2364 37.321 41.1529 37.4643 41.0434 37.5866C40.9883 37.6531 39.6707 39.2366 37.1961 40.3863C35.4613 41.1865 33.572 41.5961 31.6615 41.5863ZM20.8185 22.7131C20.7152 22.7129 20.6122 22.6998 20.512 22.6741C20.3574 22.634 20.2122 22.5638 20.0848 22.4676C19.9573 22.3713 19.85 22.2509 19.7691 22.1132C19.6881 21.9755 19.6351 21.8232 19.613 21.665C19.591 21.5068 19.6003 21.3458 19.6404 21.1912L22.7215 9.34036C22.7551 9.17911 22.8211 9.02637 22.9155 8.89139C23.01 8.75642 23.1308 8.64203 23.2708 8.55517C23.4107 8.46831 23.5669 8.41078 23.7297 8.38607C23.8926 8.36137 24.0588 8.37 24.2182 8.41145C24.3776 8.4529 24.5269 8.5263 24.6571 8.6272C24.7873 8.7281 24.8957 8.85439 24.9756 8.99842C25.0555 9.14245 25.1054 9.30122 25.1221 9.46509C25.1388 9.62896 25.122 9.79451 25.0729 9.95172L21.9918 21.8025C21.9243 22.0626 21.7725 22.2929 21.5603 22.4577C21.348 22.6224 21.0872 22.7122 20.8185 22.7131Z" fill="#676767"/>
<path d="M28.1717 48.0022C21.9933 48.0022 16.8317 46.1584 13.5114 44.5555C11.2319 43.4641 8.82163 42.67 6.33979 42.1927C3.51249 41.6406 1.52844 40.3911 0.603301 38.579C-0.338862 36.7352 -0.176699 34.4033 1.08411 31.6481C3.99168 22.7487 10.7603 12.0387 15.9333 4.61328C16.6425 3.59686 17.557 2.74048 18.6177 2.09944C19.6784 1.4584 20.8618 1.04695 22.0914 0.891663L28.8665 0.037879C30.0835 -0.116285 31.3131 0.203754 32.3005 0.931656C33.2879 1.65956 33.9574 2.7395 34.1701 3.94761L34.7733 7.36437C34.8951 8.0558 34.8435 8.76666 34.6232 9.43326C34.4028 10.0999 34.0205 10.7014 33.5105 11.1839C33.0006 11.6665 32.3789 12.015 31.7011 12.1983C31.0234 12.3816 30.3107 12.3939 29.6271 12.2341L23.6174 10.8306C23.4609 10.7952 23.313 10.7291 23.1821 10.6363C23.0513 10.5435 22.9401 10.4257 22.855 10.2897C22.7698 10.1537 22.7125 10.0023 22.6861 9.84403C22.6597 9.68579 22.6649 9.52389 22.7014 9.36767C22.7379 9.21145 22.8049 9.06398 22.8986 8.93375C22.9922 8.80353 23.1108 8.69312 23.2473 8.60889C23.3838 8.52465 23.5357 8.46826 23.6941 8.44294C23.8525 8.41763 24.0143 8.4239 24.1703 8.46139L30.1801 9.86491C30.4722 9.93402 30.7769 9.92944 31.0668 9.85159C31.3567 9.77373 31.6228 9.62505 31.841 9.4189C32.0592 9.21275 32.2227 8.9556 32.3169 8.67057C32.4111 8.38554 32.433 8.08157 32.3806 7.78599L31.7774 4.36923C31.6726 3.77596 31.3437 3.2457 30.8587 2.88827C30.3738 2.53085 29.7699 2.37365 29.1722 2.44923L22.3947 3.30139C21.5028 3.41421 20.6445 3.71288 19.8752 4.17809C19.1059 4.64331 18.4428 5.26473 17.9287 6.0022C12.8368 13.3125 6.17844 23.84 3.37465 32.4671C3.35998 32.5133 3.34237 32.5585 3.32195 32.6025C2.36276 34.6741 2.17708 36.3119 2.76979 37.4722C3.49384 38.8895 5.36438 39.5236 6.80681 39.8049C9.49321 40.3223 12.1021 41.1823 14.5695 42.3638C20.1398 45.0541 31.3079 48.4757 43.5155 41.1663C43.6525 41.0842 43.8044 41.03 43.9624 41.0066C44.1204 40.9833 44.2814 40.9913 44.4363 41.0301C44.5912 41.069 44.737 41.1381 44.8652 41.2333C44.9934 41.3285 45.1017 41.448 45.1837 41.585C45.2658 41.7221 45.32 41.8739 45.3433 42.0319C45.3667 42.1899 45.3587 42.351 45.3198 42.5059C45.2809 42.6608 45.2119 42.8065 45.1167 42.9348C45.0215 43.063 44.902 43.1712 44.7649 43.2533C38.8614 46.786 33.1817 48.0022 28.1717 48.0022Z" fill="#676767"/>
</svg>
