<svg width="48" height="48" viewBox="0 0 48 48" fill="none" xmlns="http://www.w3.org/2000/svg">
<path d="M27.7523 3.74902C27.2349 3.74902 26.8149 4.16902 26.8149 4.68643C26.8149 5.20384 27.2349 5.62384 27.7523 5.62384C28.2698 5.62384 28.6898 5.20393 28.6898 4.68643C28.6898 4.16893 28.2698 3.74902 27.7523 3.74902Z" fill="#676767"/>
<path d="M45.1878 36.1831H41.8132V14.0605C41.8132 6.13418 35.2834 -0.230412 27.3201 0.00640077C19.6557 0.236557 13.6911 6.87921 13.6911 14.6108V19.4195L11.1802 16.917C8.27808 14.0127 3.43111 14.4384 1.07545 17.9175C-0.667545 20.493 -0.256827 24.0382 2.05308 26.348L11.8652 36.1367L13.4155 37.6813C13.5418 37.8072 13.6911 38.1673 13.6911 38.3457V45.1822C13.6911 46.7328 14.9527 47.9944 16.5033 47.9944H39.001C40.5516 47.9944 41.8132 46.7328 41.8132 45.1822V41.8076H45.1878C46.7415 41.8076 48 40.5492 48 38.9953C48 37.4447 46.7385 36.1831 45.1878 36.1831ZM39.9384 45.1822C39.9384 45.699 39.5178 46.1196 39.001 46.1196H16.5033C15.9865 46.1196 15.5659 45.699 15.5659 45.1822V41.8076H39.9384V45.1822ZM39.9385 39.9328H15.566V38.3458C15.566 37.6692 15.2183 36.8313 14.739 36.3535L13.189 34.809L3.37795 25.0214C1.7032 23.3467 1.38783 20.8009 2.62805 18.9685C4.36299 16.4061 7.82921 16.2159 9.85542 18.2435L16.5663 24.932C16.9332 25.2973 17.5266 25.2964 17.8921 24.9297C18.2576 24.5628 18.2565 23.9694 17.8897 23.6039L15.5661 21.2881V14.6109C15.5661 7.7869 20.8642 2.07603 27.3765 1.88046C34.2684 1.67262 39.9386 7.18287 39.9386 14.0606L39.9385 39.9328ZM45.1878 39.9327H41.8132V38.0579H45.1878C45.7047 38.0579 46.1252 38.4785 46.1252 38.9953C46.1252 39.5129 45.7053 39.9327 45.1878 39.9327Z" fill="#676767"/>
<path d="M31.7951 4.57452C31.3193 4.37089 30.7683 4.59205 30.5647 5.06783C30.3611 5.54389 30.582 6.09486 31.058 6.29839C34.1747 7.63114 36.1885 10.6779 36.1885 14.0605V18.3725C36.1885 18.8902 36.6083 19.31 37.1259 19.31C37.6435 19.31 38.0633 18.8902 38.0633 18.3725V14.0605C38.0634 9.92624 35.603 6.20277 31.7951 4.57452ZM30.5641 32.4335C30.0465 32.4335 29.6267 32.8533 29.6267 33.371V37.1206C29.6267 37.6383 30.0465 38.058 30.5641 38.058C31.0817 38.058 31.5015 37.6383 31.5015 37.1206V33.371C31.5015 32.8533 31.0818 32.4335 30.5641 32.4335ZM36.1886 32.4335C35.671 32.4335 35.2511 32.8533 35.2511 33.371V37.1206C35.2511 37.6383 35.671 38.058 36.1886 38.058C36.7061 38.058 37.126 37.6383 37.126 37.1206V33.371C37.126 32.8533 36.7062 32.4335 36.1886 32.4335ZM24.9398 32.4335C24.4222 32.4335 24.0024 32.8533 24.0024 33.371V37.1206C24.0024 37.6383 24.4222 38.058 24.9398 38.058C25.4574 38.058 25.8772 37.6383 25.8772 37.1206V33.371C25.8771 32.8533 25.4574 32.4335 24.9398 32.4335ZM19.3153 32.4335C18.7976 32.4335 18.3779 32.8533 18.3779 33.371V37.1206C18.3779 37.6383 18.7976 38.058 19.3153 38.058C19.833 38.058 20.2527 37.6383 20.2527 37.1206V33.371C20.2527 32.8533 19.833 32.4335 19.3153 32.4335Z" fill="#676767"/>
</svg>
