<svg width="48" height="48" viewBox="0 0 48 48" fill="none" xmlns="http://www.w3.org/2000/svg">
<path fill-rule="evenodd" clip-rule="evenodd" d="M5.1582 19.47H34.4682C34.866 19.47 35.2476 19.628 35.5289 19.9093C35.8102 20.1906 35.9682 20.5721 35.9682 20.97V31.438C35.9679 35.1675 34.4867 38.7442 31.8502 41.382C29.2124 44.0185 25.6357 45.4997 21.9062 45.5H17.7202C15.8735 45.5002 14.0448 45.1367 12.3386 44.4301C10.6324 43.7235 9.08211 42.6877 7.77628 41.3819C6.47045 40.0761 5.43466 38.5258 4.72807 36.8196C4.02149 35.1134 3.65794 33.2847 3.6582 31.438V20.97C3.6582 20.5721 3.81624 20.1906 4.09754 19.9093C4.37885 19.628 4.76038 19.47 5.1582 19.47ZM6.6582 22.47V31.438C6.65715 32.891 6.94256 34.3299 7.49811 35.6725C8.05365 37.015 8.86843 38.2349 9.89584 39.2623C10.9233 40.2897 12.1431 41.1045 13.4857 41.6601C14.8283 42.2156 16.2672 42.501 17.7202 42.5H21.9062C24.84 42.5 27.6537 41.3345 29.7282 39.26C31.8027 37.1855 32.9682 34.3718 32.9682 31.438V22.47H6.6582Z" fill="#676767"/>
<path fill-rule="evenodd" clip-rule="evenodd" d="M5.1582 45.4999C4.76038 45.4999 4.37885 45.3419 4.09754 45.0606C3.81624 44.7793 3.6582 44.3978 3.6582 43.9999C3.6582 43.6021 3.81624 43.2206 4.09754 42.9393C4.37885 42.658 4.76038 42.4999 5.1582 42.4999H34.4682C34.866 42.4999 35.2476 42.658 35.5289 42.9393C35.8102 43.2206 35.9682 43.6021 35.9682 43.9999C35.9682 44.3978 35.8102 44.7793 35.5289 45.0606C35.2476 45.3419 34.866 45.4999 34.4682 45.4999H5.1582ZM34.4682 24.5639C34.0704 24.5639 33.6888 24.4059 33.4075 24.1246C33.1262 23.8433 32.9682 23.4618 32.9682 23.0639C32.9682 22.6661 33.1262 22.2846 33.4075 22.0033C33.6888 21.722 34.0704 21.5639 34.4682 21.5639H37.0902C38.0426 21.5637 38.9858 21.7511 39.8657 22.1154C40.7457 22.4798 41.5453 23.0139 42.2187 23.6874C42.8922 24.3609 43.4264 25.1604 43.7907 26.0404C44.1551 26.9204 44.3425 27.8635 44.3422 28.8159V28.8259C44.3425 29.7784 44.1551 30.7215 43.7907 31.6015C43.4264 32.4814 42.8922 33.281 42.2187 33.9545C41.5453 34.6279 40.7457 35.1621 39.8657 35.5264C38.9858 35.8908 38.0426 36.0782 37.0902 36.0779H34.4682C34.0704 36.0779 33.6888 35.9199 33.4075 35.6386C33.1262 35.3573 32.9682 34.9758 32.9682 34.5779C32.9682 34.1801 33.1262 33.7986 33.4075 33.5173C33.6888 33.236 34.0704 33.0779 34.4682 33.0779H37.0902C37.6488 33.0787 38.2021 32.9693 38.7183 32.7559C39.2345 32.5425 39.7036 32.2293 40.0986 31.8343C40.4936 31.4393 40.8067 30.9703 41.0201 30.454C41.2335 29.9378 41.343 29.3845 41.3422 28.8259V28.8159C41.3425 28.2575 41.2327 27.7044 41.0191 27.1885C40.8055 26.6725 40.4923 26.2036 40.0974 25.8087C39.7025 25.4138 39.2337 25.1007 38.7177 24.8871C38.2017 24.6735 37.6487 24.5637 37.0902 24.5639H34.4682ZM10.5102 6.76394C10.3442 6.40975 10.3231 6.00472 10.4514 5.6352C10.5798 5.26568 10.8474 4.96092 11.1972 4.78588C11.547 4.61084 11.9514 4.57937 12.324 4.69819C12.6967 4.81701 13.0083 5.07672 13.1922 5.42194C13.6649 6.36652 13.8651 7.42409 13.7704 8.47609C13.6758 9.52809 13.2899 10.5329 12.6562 11.3779L12.6202 11.4259C12.321 11.8253 12.1389 12.3 12.094 12.7969C12.0491 13.2938 12.1434 13.7935 12.3662 14.2399C12.4604 14.4166 12.5182 14.6104 12.5363 14.8098C12.5544 15.0092 12.5323 15.2102 12.4715 15.401C12.4107 15.5917 12.3123 15.7684 12.1822 15.9205C12.052 16.0726 11.8927 16.1972 11.7136 16.2868C11.5346 16.3764 11.3394 16.4292 11.1396 16.4422C10.9398 16.4551 10.7394 16.428 10.5503 16.3623C10.3612 16.2966 10.1871 16.1937 10.0383 16.0597C9.88959 15.9257 9.76918 15.7632 9.6842 15.5819C9.21153 14.6374 9.0113 13.5798 9.10597 12.5278C9.20065 11.4758 9.58647 10.471 10.2202 9.62594L10.2562 9.57794C10.8662 8.76394 10.9642 7.67394 10.5102 6.76394ZM27.2582 6.76394C27.0802 6.40802 27.051 5.99598 27.1768 5.61847C27.3026 5.24096 27.5733 4.9289 27.9292 4.75094C28.2851 4.57298 28.6972 4.54369 29.0747 4.66953C29.4522 4.79537 29.7642 5.06602 29.9422 5.42194C30.4151 6.36658 30.6152 7.42434 30.5202 8.47644C30.4251 9.52854 30.0387 10.5333 29.4042 11.3779L29.3702 11.4259C29.0706 11.8251 28.8882 12.2998 28.8433 12.7968C28.7984 13.2939 28.8929 13.7936 29.1162 14.2399C29.2043 14.4162 29.2569 14.608 29.2708 14.8046C29.2848 15.0011 29.2599 15.1985 29.1976 15.3854C29.1353 15.5723 29.0368 15.7452 28.9077 15.894C28.7786 16.0429 28.6214 16.1648 28.4452 16.2529C28.269 16.3411 28.0771 16.3936 27.8806 16.4076C27.684 16.4215 27.4867 16.3967 27.2997 16.3343C27.1128 16.272 26.94 16.1735 26.7911 16.0444C26.6423 15.9153 26.5203 15.7582 26.4322 15.5819C25.9605 14.637 25.761 13.5794 25.856 12.5276C25.951 11.4757 26.3368 10.4711 26.9702 9.62594L27.0042 9.57794C27.6162 8.76394 27.7142 7.67394 27.2582 6.76394ZM18.8842 4.66994C18.7944 4.49351 18.7404 4.30106 18.7253 4.10367C18.7103 3.90628 18.7344 3.70786 18.7964 3.51985C18.8584 3.33184 18.957 3.15795 19.0865 3.00823C19.216 2.8585 19.3739 2.73589 19.551 2.64746C19.7281 2.55903 19.921 2.50654 20.1185 2.49301C20.316 2.47948 20.5142 2.50517 20.7017 2.56862C20.8892 2.63206 21.0623 2.732 21.2111 2.86266C21.3598 2.99333 21.4812 3.15214 21.5682 3.32994C22.04 4.27451 22.2395 5.33176 22.1445 6.38332C22.0495 7.43487 21.6637 8.43922 21.0302 9.28394L20.9962 9.33194C20.6962 9.73088 20.5135 10.2056 20.4686 10.7028C20.4237 11.1999 20.5185 11.6997 20.7422 12.1459C20.9202 12.5019 20.9494 12.9139 20.8236 13.2914C20.6978 13.6689 20.4271 13.981 20.0712 14.1589C19.7153 14.3369 19.3032 14.3662 18.9257 14.2403C18.5482 14.1145 18.2362 13.8439 18.0582 13.4879C17.5854 12.5433 17.3852 11.4855 17.4802 10.4334C17.5753 9.38133 17.9617 8.37656 18.5962 7.53194L18.6302 7.48394C19.2402 6.66994 19.3402 5.58194 18.8842 4.66994Z" fill="#676767"/>
</svg>
