<svg width="36" height="48" viewBox="0 0 36 48" fill="none" xmlns="http://www.w3.org/2000/svg">
<path d="M32.3842 4.24402C32.3842 3.45338 31.7433 2.8125 30.9527 2.8125H4.24402C3.45339 2.81252 2.81252 3.45339 2.8125 4.24402V39.9484H32.3842V4.24402ZM5.53574 45.1875H29.661V42.7609H5.53574V45.1875ZM28.2848 5.46762C29.0614 5.46763 29.691 6.09722 29.691 6.87387C29.691 7.65051 29.0614 8.28012 28.2848 8.28012H21.2253C20.4487 8.28012 19.8191 7.65051 19.8191 6.87387C19.8191 6.09722 20.4487 5.46762 21.2253 5.46762H28.2848ZM35.1967 41.3546C35.1967 42.1313 34.5671 42.7609 33.7905 42.7609H32.4735V46.5938C32.4735 47.3704 31.8439 48 31.0672 48H4.12949C3.35284 48 2.72324 47.3704 2.72324 46.5938V42.7609H1.40625C0.629606 42.7609 1.08234e-05 42.1313 0 41.3546V4.24402C2.37752e-05 1.90009 1.90009 2.39653e-05 4.24402 0H30.9527C33.2966 4.6391e-06 35.1967 1.90008 35.1967 4.24402V41.3546Z" fill="#676767"/>
<path d="M20.3057 12.6584C21.0823 12.6585 21.7119 13.2881 21.7119 14.0647V17.2711H24.9251C25.7017 17.2711 26.3313 17.9007 26.3313 18.6774V24.0836C26.3313 24.8602 25.7017 25.4898 24.9251 25.4898H21.7119V28.6963C21.7119 29.4729 21.0823 30.1025 20.3057 30.1025H14.8915C14.1149 30.1025 13.4853 29.4729 13.4853 28.6963V25.4898H10.272C9.49533 25.4898 8.86573 24.8602 8.86572 24.0836V18.6774C8.86572 17.9007 9.49532 17.2711 10.272 17.2711H13.4853V14.0647C13.4853 13.288 14.1149 12.6584 14.8915 12.6584H20.3057ZM16.2978 18.6774C16.2978 19.454 15.6682 20.0836 14.8915 20.0836H11.6782V22.6773H14.8915C15.6682 22.6774 16.2978 23.3069 16.2978 24.0836V27.29H18.8994V24.0836C18.8994 23.3069 19.529 22.6773 20.3057 22.6773H23.5188V20.0836H20.3057C19.529 20.0836 18.8995 19.454 18.8994 18.6774V15.4709H16.2978V18.6774Z" fill="#676767"/>
</svg>
