<svg width="48" height="48" viewBox="0 0 48 48" fill="none" xmlns="http://www.w3.org/2000/svg">
<g clip-path="url(#clip0_399_345)">
<path d="M24.3441 39.3841C24.3915 39.517 24.4286 39.6582 24.454 39.8059C24.4788 39.9495 24.4918 40.0942 24.4918 40.238C24.4918 40.9401 24.2071 41.5759 23.7471 42.0359C23.2872 42.4959 22.6514 42.7805 21.9492 42.7805C21.2472 42.7805 20.6114 42.4959 20.1515 42.0359V42.0331C19.6915 41.5729 19.4068 40.9381 19.4068 40.238C19.4068 40.0944 19.4199 39.9497 19.4445 39.8058C19.4699 39.658 19.507 39.5168 19.5544 39.3841L19.7213 38.9171H24.1774L24.3441 39.3841ZM22.7528 41.0415C22.9395 40.8549 23.0616 40.6032 23.0823 40.3234H20.8162C20.8369 40.6041 20.9584 40.8562 21.1445 41.0429L21.1458 41.0415C21.3513 41.2471 21.6356 41.3743 21.9492 41.3743C22.2631 41.3743 22.5473 41.2471 22.7528 41.0415ZM19.2549 29.4031H24.6437C24.9426 29.4031 25.214 29.5248 25.4102 29.721C25.6064 29.9172 25.7281 30.1886 25.7281 30.4874V33.5463L24.8079 33.2465C24.3526 33.0982 23.8842 32.9846 23.4078 32.9099C22.9459 32.8374 22.4585 32.7995 21.9492 32.7995C21.44 32.7995 20.9527 32.8374 20.4908 32.9099C20.0143 32.9847 19.5459 33.0982 19.0906 33.2465L18.1704 33.5463V30.4874C18.1704 30.1886 18.2921 29.9172 18.4883 29.721H18.4911C18.6875 29.5249 18.9579 29.4031 19.2549 29.4031ZM24.3218 30.8093H19.5767V31.6591C19.8057 31.6075 20.0391 31.5628 20.2767 31.5255C20.8302 31.4387 21.3897 31.3932 21.9492 31.3932C22.5088 31.3932 23.0684 31.4387 23.6219 31.5255C23.8595 31.5628 24.093 31.6074 24.3218 31.659V30.8093Z" fill="#676767"/>
<path d="M21.2462 30.1064V12.1948H22.6525V30.1064H21.2462ZM21.9493 40.3235H12.5317V39.6203C12.5317 37.3302 13.6006 35.262 15.3286 33.7702C17.0294 32.3017 19.371 31.3934 21.9493 31.3934C24.5278 31.3934 26.8693 32.3017 28.5701 33.7702C30.2982 35.262 31.367 37.3302 31.367 39.6203V40.3235H21.9493ZM13.9803 38.9172H29.9186C29.7273 37.3318 28.8972 35.9047 27.6528 34.8303C26.1996 33.5756 24.1836 32.7997 21.9493 32.7997C19.7152 32.7997 17.699 33.5758 16.2459 34.8303C15.0015 35.9047 14.1714 37.3318 13.9803 38.9172Z" fill="#676767"/>
<path d="M24.3441 39.3841C24.3915 39.517 24.4286 39.6582 24.454 39.8059C24.4788 39.9495 24.4918 40.0942 24.4918 40.238C24.4918 40.9368 24.2072 41.5716 23.747 42.033L23.7443 42.0358C23.2829 42.496 22.6481 42.7805 21.9492 42.7805C21.2498 42.7805 20.6144 42.4954 20.1529 42.0343L20.1515 42.0358C19.6915 41.5758 19.4068 40.94 19.4068 40.238C19.4068 40.0944 19.4199 39.9497 19.4445 39.8058C19.4699 39.658 19.507 39.5168 19.5544 39.3841L19.7213 38.9171H24.1774L24.3441 39.3841ZM22.7555 41.0414C22.9408 40.8562 23.062 40.6045 23.0824 40.3234H20.8163C20.837 40.6031 20.9591 40.8547 21.1458 41.0414V41.0442C21.3495 41.2481 21.6337 41.3743 21.9492 41.3743C22.2647 41.3743 22.5488 41.2482 22.7527 41.0442L22.7555 41.0414ZM19.2549 29.4031H24.6437C24.9426 29.4031 25.214 29.5248 25.4102 29.721C25.6064 29.9172 25.7281 30.1886 25.7281 30.4874V33.5463L24.8079 33.2465C24.3526 33.0982 23.8842 32.9846 23.4078 32.9099C22.9459 32.8374 22.4585 32.7995 21.9492 32.7995C21.44 32.7995 20.9527 32.8374 20.4908 32.9099C20.0143 32.9847 19.5459 33.0982 19.0906 33.2465L18.1704 33.5463V30.4874C18.1704 30.1886 18.2921 29.9172 18.4883 29.721H18.4911C18.6875 29.5249 18.9579 29.4031 19.2549 29.4031ZM24.3218 30.8093H19.5767V31.6591C19.8057 31.6075 20.0391 31.5628 20.2767 31.5255C20.8302 31.4387 21.3897 31.3932 21.9492 31.3932C22.5088 31.3932 23.0684 31.4387 23.6219 31.5255C23.8595 31.5628 24.093 31.6074 24.3218 31.659V30.8093Z" fill="#676767"/>
<path d="M22.6525 30.1063C22.6525 30.4946 22.3377 30.8094 21.9493 30.8094C21.561 30.8094 21.2462 30.4946 21.2462 30.1063V5.92261C21.2462 5.53428 21.561 5.21948 21.9493 5.21948C22.3377 5.21948 22.6525 5.53428 22.6525 5.92261V30.1063ZM21.9493 40.3234H12.5318V39.6202C12.5318 37.3301 13.6006 35.2619 15.3286 33.7701C17.0294 32.3016 19.371 31.3933 21.9493 31.3933C24.5278 31.3933 26.8693 32.3016 28.5701 33.7701C30.2982 35.2619 31.367 37.3301 31.367 39.6202V40.3234H21.9493ZM13.9803 38.9171H29.9186C29.7274 37.3317 28.8972 35.9046 27.6529 34.8302C26.1997 33.5755 24.1836 32.7996 21.9493 32.7996C19.7152 32.7996 17.699 33.5757 16.2459 34.8302C15.0016 35.9046 14.1714 37.3317 13.9803 38.9171ZM11.8124 25.2419C11.8597 25.3748 11.8968 25.5159 11.9223 25.6638C11.9471 25.8074 11.9601 25.952 11.9601 26.0958C11.9601 26.7945 11.6755 27.4294 11.2153 27.8909L11.2125 27.8936C10.7511 28.3538 10.1162 28.6384 9.41751 28.6384C8.71793 28.6384 8.08268 28.3533 7.62116 27.8922L7.61972 27.8936C7.15975 27.4337 6.87507 26.7978 6.87507 26.0958C6.87507 25.952 6.88802 25.8074 6.91283 25.6638C6.93829 25.5159 6.97539 25.3748 7.02278 25.2419L7.18943 24.7749H11.6458L11.8124 25.2419ZM10.2237 26.8993C10.409 26.7141 10.5301 26.4624 10.5507 26.1812H8.28453C8.30524 26.4609 8.42737 26.7126 8.61406 26.8993V26.902C8.81791 27.106 9.10204 27.2321 9.41751 27.2321C9.73309 27.2321 10.0172 27.1059 10.221 26.902L10.2237 26.8993ZM6.72315 15.2609H12.112C12.4108 15.2609 12.6822 15.3826 12.8784 15.5788C13.0747 15.775 13.1963 16.0464 13.1963 16.3453V19.4042L12.2762 19.1043C11.8209 18.956 11.3525 18.8424 10.876 18.7677C10.4142 18.6953 9.92675 18.6573 9.41751 18.6573C8.90827 18.6573 8.42095 18.6953 7.9591 18.7677C7.48253 18.8425 7.01414 18.956 6.55883 19.1043L5.63867 19.4042V16.3453C5.63867 16.0464 5.76036 15.775 5.95657 15.5788H5.95934C6.15578 15.3827 6.42617 15.2609 6.72315 15.2609ZM11.7901 16.6672H7.04493V17.5169C7.27391 17.4653 7.50733 17.4207 7.74495 17.3834C8.29849 17.2965 8.858 17.251 9.41751 17.251C9.97702 17.251 10.5366 17.2965 11.0902 17.3834C11.3278 17.4207 11.5612 17.4652 11.7901 17.5168V16.6672Z" fill="#676767"/>
<path d="M10.1207 15.964C10.1207 16.3523 9.80591 16.6671 9.41759 16.6671C9.02926 16.6671 8.71446 16.3523 8.71446 15.964V6.1499C8.71446 5.76158 9.02926 5.44678 9.41759 5.44678C9.80591 5.44678 10.1207 5.76158 10.1207 6.1499V15.964ZM9.41759 26.1811H0V25.4779C0 23.1877 1.06897 21.1196 2.7969 19.6278C4.49769 18.1593 6.83927 17.251 9.41759 17.251C11.996 17.251 14.3376 18.1593 16.0384 19.6278C17.7663 21.1196 18.8353 23.1877 18.8353 25.4779V26.1811H9.41759ZM1.44844 24.7748H17.3867C17.1956 23.1894 16.3655 21.7623 15.1211 20.6879C13.6679 19.4332 11.6519 18.6573 9.41759 18.6573C7.18341 18.6573 5.16726 19.4334 3.71417 20.6879C2.4698 21.7623 1.63967 23.1894 1.44844 24.7748ZM40.9771 31.9963C41.0245 32.1292 41.0616 32.2704 41.0871 32.4182C41.1119 32.5618 41.1249 32.7065 41.1249 32.8502C41.1249 33.5503 40.8402 34.1852 40.3802 34.6454V34.6481C39.9202 35.1081 39.2844 35.3928 38.5824 35.3928C37.8824 35.3928 37.2475 35.1081 36.7873 34.6481L36.7845 34.6454C36.3245 34.1852 36.0399 33.5503 36.0399 32.8502C36.0399 32.7065 36.0528 32.5618 36.0776 32.4182C36.1031 32.2704 36.1402 32.1292 36.1876 31.9963L36.3541 31.5294H40.8105L40.9771 31.9963ZM39.3872 33.6551C39.5732 33.4686 39.6948 33.2164 39.7155 32.9356H37.4492C37.4699 33.2164 37.5915 33.4686 37.7775 33.6551C37.9829 33.8598 38.2674 33.9865 38.5824 33.9865C38.8961 33.9865 39.1803 33.8593 39.3859 33.6538L39.3872 33.6551ZM35.8879 22.0153H41.2768C41.5759 22.0153 41.8471 22.137 42.0434 22.3332C42.2396 22.5294 42.3613 22.8007 42.3613 23.0998V26.1586L41.4411 25.8587C40.9859 25.7105 40.5175 25.597 40.041 25.5222C39.5792 25.4498 39.0918 25.4118 38.5824 25.4118C38.0729 25.4118 37.5855 25.4498 37.1237 25.5222C36.6472 25.597 36.1788 25.7105 35.7237 25.8587L34.8036 26.1586V23.0998C34.8036 22.8028 34.9254 22.5324 35.1215 22.336V22.3332C35.3177 22.137 35.5891 22.0153 35.8879 22.0153ZM40.955 23.4216H36.2098V24.2712C36.4387 24.2197 36.672 24.1751 36.9095 24.1379C37.4632 24.0511 38.0228 24.0056 38.5824 24.0056C39.1419 24.0056 39.7015 24.0511 40.2552 24.1379C40.4927 24.1751 40.7261 24.2197 40.955 24.2713V23.4216Z" fill="#676767"/>
<path d="M37.8791 22.7186V5.84863H39.2854V22.7186H37.8791ZM38.5822 32.9356H29.1646V32.2325C29.1646 29.9423 30.2335 27.8742 31.9614 26.3824C33.6622 24.9141 36.0038 24.0057 38.5822 24.0057C41.1607 24.0057 43.5021 24.914 45.2029 26.3824C46.9309 27.8742 47.9998 29.9423 47.9998 32.2325V32.9356H38.5822ZM30.613 31.5294H46.5514C46.3602 29.944 45.53 28.5169 44.2857 27.4425C42.8326 26.1879 40.8165 25.412 38.5822 25.412C36.348 25.412 34.3318 26.1881 32.8787 27.4425C31.6344 28.5169 30.8042 29.944 30.613 31.5294Z" fill="#676767"/>
<path d="M40.9773 31.9964C41.0247 32.1292 41.0618 32.2704 41.0872 32.4182C41.112 32.5618 41.125 32.7066 41.125 32.8503C41.125 33.5503 40.8403 34.1852 40.3803 34.6454V34.6482C39.9204 35.1082 39.2846 35.3928 38.5825 35.3928C37.8825 35.3928 37.2476 35.1082 36.7874 34.6482L36.7846 34.6454C36.3247 34.1852 36.04 33.5503 36.04 32.8503C36.04 32.7066 36.053 32.5618 36.0778 32.4182C36.1032 32.2704 36.1403 32.1292 36.1877 31.9964L36.3542 31.5294H40.8106L40.9773 31.9964ZM39.3873 33.6552C39.5734 33.4686 39.6949 33.2165 39.7156 32.9357H37.4494C37.4701 33.2165 37.5916 33.4686 37.7777 33.6552C37.9831 33.8598 38.2675 33.9866 38.5825 33.9866C38.8962 33.9866 39.1805 33.8594 39.386 33.6539L39.3873 33.6552ZM35.8881 22.0154H41.2769C41.576 22.0154 41.8473 22.1371 42.0435 22.3333C42.2397 22.5295 42.3614 22.8008 42.3614 23.0999V26.1586L41.4412 25.8588C40.986 25.7105 40.5176 25.597 40.0412 25.5223C39.5793 25.4499 39.0919 25.4119 38.5825 25.4119C38.0731 25.4119 37.5857 25.4499 37.1238 25.5223C36.6473 25.597 36.179 25.7105 35.7239 25.8588L34.8037 26.1586V23.0999C34.8037 22.8029 34.9255 22.5325 35.1216 22.3361V22.3333C35.3178 22.1371 35.5892 22.0154 35.8881 22.0154ZM40.9551 23.4216H36.21V24.2713C36.4388 24.2198 36.6721 24.1751 36.9097 24.1379C37.4633 24.0511 38.0229 24.0056 38.5825 24.0056C39.1421 24.0056 39.7017 24.0511 40.2553 24.1379C40.4928 24.1751 40.7263 24.2198 40.9551 24.2714V23.4216Z" fill="#676767"/>
<path d="M39.2854 22.7184C39.2854 23.1068 38.9706 23.4216 38.5822 23.4216C38.1939 23.4216 37.8791 23.1068 37.8791 22.7184V6.33081C37.8791 5.94249 38.1939 5.62769 38.5822 5.62769C38.9706 5.62769 39.2854 5.94249 39.2854 6.33081V22.7184ZM38.5822 32.9355H29.1646V32.2324C29.1646 29.9422 30.2335 27.8741 31.9614 26.3822C33.6622 24.914 36.0038 24.0055 38.5822 24.0055C41.1607 24.0055 43.5021 24.9139 45.2029 26.3822C46.9309 27.8741 47.9998 29.9422 47.9998 32.2324V32.9355H38.5822ZM30.613 31.5292H46.5514C46.3602 29.9438 45.53 28.5167 44.2857 27.4423C42.8326 26.1878 40.8165 25.4118 38.5822 25.4118C36.348 25.4118 34.3318 26.1879 32.8787 27.4423C31.6344 28.5167 30.8042 29.9438 30.613 31.5292Z" fill="#676767"/>
</g>
<defs>
<clipPath id="clip0_399_345">
<rect width="48" height="48" fill="white"/>
</clipPath>
</defs>
</svg>
