<svg width="47" height="48" viewBox="0 0 47 48" fill="none" xmlns="http://www.w3.org/2000/svg">
<path d="M46.2967 28.4235L40.9193 20.1226C40.8547 20.0229 40.7663 19.941 40.662 19.8842C40.5577 19.8275 40.4408 19.7978 40.3221 19.7977H29.0398C28.455 16.5637 26.7865 13.6073 24.2977 11.4188C22.4013 9.75149 20.1053 8.60386 17.6334 8.08781C18.6145 7.24331 19.2378 5.99381 19.2378 4.60069C19.2378 2.064 17.1738 0 14.6372 0C12.1006 0 10.0365 2.064 10.0365 4.60069C10.0365 5.99484 10.6605 7.24509 11.643 8.08959C8.67562 8.71294 5.93709 10.2499 3.85706 12.5138C3.72939 12.6528 3.66214 12.8368 3.6701 13.0254C3.67806 13.214 3.76059 13.3917 3.89953 13.5194C4.03854 13.6471 4.22255 13.7143 4.4111 13.7063C4.59966 13.6984 4.77734 13.6159 4.90509 13.4769C7.40194 10.7601 10.9483 9.20175 14.6357 9.20138H14.6383C17.8514 9.20175 20.9481 10.3689 23.3577 12.4878C25.5397 14.4064 27.0228 16.9779 27.5904 19.7977H25.3159C24.125 14.9103 19.726 11.4221 14.6368 11.4221C8.57569 11.4221 3.64425 16.3536 3.64425 22.4147C3.64425 28.4758 8.57569 33.4072 14.6368 33.4072C16.2668 33.4072 17.8815 33.0426 19.344 32.3497L20.7148 34.1484C18.8453 35.1178 16.7608 35.6279 14.6368 35.6279C7.35103 35.6279 1.42359 29.7005 1.42359 22.4147C1.42359 19.9163 2.12372 17.4844 3.44906 15.3816C3.49889 15.3025 3.53265 15.2143 3.54841 15.1222C3.56418 15.0301 3.56164 14.9357 3.54095 14.8446C3.52026 14.7534 3.48181 14.6672 3.42781 14.5909C3.37381 14.5146 3.30531 14.4497 3.22622 14.3999C3.14713 14.3501 3.059 14.3163 2.96687 14.3006C2.87473 14.2848 2.78039 14.2873 2.68924 14.308C2.59808 14.3287 2.5119 14.3672 2.4356 14.4212C2.3593 14.4752 2.29439 14.5437 2.24456 14.6227C0.775969 16.9531 0 19.6477 0 22.4147C0 30.4852 6.56625 37.0514 14.6367 37.0514C17.0723 37.0514 19.4619 36.4449 21.5888 35.2955L31.0551 47.7195C31.1215 47.8067 31.2071 47.8773 31.3053 47.9259C31.4035 47.9745 31.5116 47.9998 31.6212 47.9998C31.7308 47.9998 31.8389 47.9745 31.9371 47.9259C32.0353 47.8773 32.121 47.8067 32.1874 47.7195L40.0653 37.3795C40.122 37.3052 40.1634 37.2204 40.1873 37.1301C40.2112 37.0397 40.2171 36.9455 40.2046 36.8529C40.1921 36.7602 40.1614 36.671 40.1144 36.5902C40.0674 36.5094 40.0049 36.4387 39.9306 36.382C39.7805 36.2677 39.5911 36.2176 39.4041 36.2429C39.217 36.2681 39.0477 36.3666 38.9333 36.5168L33.4599 43.7003L37.7856 29.5221H44.2625L40.4692 34.5011C40.4126 34.5755 40.3711 34.6602 40.3472 34.7506C40.3233 34.841 40.3174 34.9352 40.3299 35.0278C40.3425 35.1204 40.3731 35.2097 40.4201 35.2905C40.4671 35.3713 40.5296 35.442 40.604 35.4986C40.7541 35.613 40.9435 35.6631 41.1305 35.6378C41.3175 35.6125 41.4868 35.514 41.6012 35.3639L46.2656 29.242C46.3545 29.1254 46.4051 28.9842 46.4107 28.8377C46.4163 28.6912 46.3765 28.5465 46.2967 28.4235ZM14.6371 1.4235C16.1444 1.4235 17.4085 2.47884 17.733 3.88875H11.5411C11.8652 2.47884 13.1298 1.4235 14.6371 1.4235ZM11.5411 5.31262H17.733C17.4089 6.72253 16.1448 7.77759 14.6382 7.77797H14.6356C13.129 7.77722 11.8653 6.72253 11.5411 5.31262ZM18.98 29.5221H25.4564L29.7825 43.7003L18.98 29.5221ZM30.2772 21.2212L26.172 27.2659L23.9414 21.2212H30.2772ZM32.9648 21.2212H39.3007L37.0701 27.2659L32.9648 21.2212ZM35.9151 28.0987H27.3274L31.6212 21.7763L35.9151 28.0987ZM22.7446 22.0898L24.9621 28.099H18.8518L22.7446 22.0898ZM36.2974 29.5221L31.6212 44.8492L26.9451 29.5221H36.2974ZM40.4978 22.0898L44.3903 28.099H38.28L40.4978 22.0898ZM14.6367 31.9837C9.36038 31.9837 5.06766 27.691 5.06766 22.4147C5.06766 17.1383 9.36038 12.8459 14.6367 12.8459C18.9488 12.8459 22.6923 15.7218 23.8444 19.7977H22.92C22.8013 19.7978 22.6844 19.8276 22.5801 19.8843C22.4758 19.941 22.3874 20.023 22.3228 20.1226L16.9453 28.4235C16.8656 28.5465 16.8258 28.6912 16.8314 28.8376C16.837 28.9841 16.8876 29.1253 16.9764 29.2419L18.4596 31.1884C17.2532 31.7125 15.952 31.9832 14.6367 31.9837Z" fill="#676767"/>
</svg>
