<svg width="48" height="48" viewBox="0 0 48 48" fill="none" xmlns="http://www.w3.org/2000/svg">
<path d="M39.2001 4.80013H45.5999C45.9134 4.80277 46.2241 4.7423 46.5137 4.62232C46.8033 4.50233 47.0658 4.3253 47.2855 4.10175C47.5375 3.85569 47.7316 3.55655 47.8535 3.22609C47.9754 2.89563 48.0221 2.54214 47.9903 2.19135C47.8515 0.931226 46.778 -0.0172763 45.5104 0.000238664H35.2001C33.4328 0.000238664 32.0002 1.4329 32.0002 3.20016V44.7994C32.0002 46.5667 33.4328 47.9994 35.2001 47.9994C36.9674 47.9994 38.4 46.5667 38.4 44.7994V31.1997C38.4 30.7578 38.7582 30.3997 39.2 30.3997H45.5999C45.9133 30.4023 46.2241 30.3419 46.5136 30.2219C46.8032 30.1019 47.0657 29.9249 47.2854 29.7013C47.5375 29.4553 47.7315 29.1561 47.8534 28.8257C47.9753 28.4952 48.0221 28.1417 47.9902 27.7909C47.8514 26.5307 46.778 25.5822 45.5102 25.5997H39.1999C38.7581 25.5997 38.3999 25.2416 38.3999 24.7997V23.9998H46.3998C46.8417 23.9998 47.1998 23.6416 47.1998 23.1998C47.1998 22.7579 46.8417 22.3998 46.3998 22.3998H38.4V20.7998H46.3999C46.8418 20.7998 47.1999 20.4417 47.1999 19.9999C47.1999 19.558 46.8418 19.1999 46.3999 19.1999H38.4V17.5999H46.3999C46.8418 17.5999 47.1999 17.2418 47.1999 16.7999C47.1999 16.3581 46.8418 15.9999 46.3999 15.9999H38.4V14.4H46.3999C46.8418 14.4 47.1999 14.0418 47.1999 13.6C47.1999 13.1582 46.8418 12.8 46.3999 12.8H38.4V11.2001H46.3999C46.8418 11.2001 47.1999 10.8419 47.1999 10.4001C47.1999 9.95824 46.8418 9.6001 46.3999 9.6001H38.4V8.00013H46.3999C46.8418 8.00013 47.1999 7.64199 47.1999 7.20015C47.1999 6.75832 46.8418 6.40017 46.3999 6.40017H38.4V5.60011C38.4 5.15827 38.7583 4.80013 39.2001 4.80013ZM39.2001 27.1998H45.5104C45.7218 27.1914 45.9289 27.2606 46.0928 27.3944C46.2567 27.5282 46.366 27.7173 46.4 27.9261C46.411 28.044 46.395 28.1628 46.3535 28.2737C46.3119 28.3845 46.2458 28.4845 46.16 28.5661C46.0875 28.6411 46.0004 28.7005 45.9041 28.7406C45.8078 28.7808 45.7043 28.8009 45.6 28.7997H39.2002C37.8747 28.7997 36.8002 29.8742 36.8002 31.1996V44.7994C36.8002 45.683 36.0839 46.3993 35.2003 46.3993C34.3166 46.3993 33.6003 45.683 33.6003 44.7994V3.20016C33.6003 2.31649 34.3167 1.6002 35.2003 1.6002H45.5104C45.7218 1.59179 45.9289 1.66102 46.0928 1.79482C46.2567 1.92862 46.366 2.11775 46.4 2.32656C46.4116 2.44508 46.396 2.56469 46.3544 2.67628C46.3128 2.78787 46.2463 2.88852 46.16 2.97057C46.0871 3.0448 45.9999 3.10344 45.9036 3.14291C45.8073 3.18238 45.704 3.20186 45.6 3.20016H39.2002C37.8747 3.20016 36.8002 4.27468 36.8002 5.60011V24.7997C36.8001 26.1253 37.8746 27.1998 39.2001 27.1998ZM24.0003 44.7994C25.7675 44.7994 27.2002 43.3668 27.2002 41.5995V39.9996C27.2002 38.2323 25.7675 36.7996 24.0003 36.7996C22.233 36.7996 20.8004 38.2323 20.8004 39.9996V41.5995C20.8004 43.3668 22.233 44.7994 24.0003 44.7994ZM22.4003 39.9996C22.4003 39.1159 23.1167 38.3996 24.0003 38.3996C24.8839 38.3996 25.6002 39.116 25.6002 39.9996V41.5995C25.6002 42.4832 24.8839 43.1995 24.0003 43.1995C23.1167 43.1995 22.4003 42.4831 22.4003 41.5995V39.9996ZM6.40061 44.7994C8.16788 44.7994 9.60054 43.3668 9.60054 41.5995V39.9996C9.60054 38.2323 8.16788 36.7996 6.40061 36.7996C4.63334 36.7996 3.20068 38.2322 3.20068 39.9996V41.5995C3.20068 43.3668 4.63334 44.7994 6.40061 44.7994ZM4.80065 39.9996C4.80065 39.1159 5.51702 38.3996 6.40061 38.3996C7.2842 38.3996 8.00057 39.116 8.00057 39.9996V41.5995C8.00057 42.4832 7.2842 43.1995 6.40061 43.1995C5.51702 43.1995 4.80065 42.4831 4.80065 41.5995V39.9996Z" fill="#676767"/>
<path d="M6.19186 47.9994H6.37985C8.0168 47.9935 9.58607 47.3455 10.7502 46.1946C11.396 45.5665 11.91 44.8158 12.2621 43.9865C12.6142 43.1572 12.7972 42.266 12.8005 41.3651V36.3892C12.7992 35.8627 12.9022 35.3413 13.1036 34.8549C13.3051 34.3685 13.6009 33.9269 13.9741 33.5556L15.2005 32.3293L16.4261 33.5548C17.1752 34.3083 17.5972 35.3267 17.6004 36.3892V41.3659C17.6041 42.2676 17.7878 43.1595 18.1409 43.9893C18.4939 44.819 19.0092 45.5699 19.6564 46.1978C20.8167 47.3452 22.3805 47.992 24.0123 47.9994H24.2075C27.6609 47.8875 30.402 45.0547 30.4002 41.5994V40.1795C30.4262 39.241 30.2456 38.3084 29.8712 37.4475C29.4968 36.5866 28.9377 35.8186 28.2335 35.1977C27.5293 34.5769 26.6973 34.1185 25.7963 33.8549C24.8952 33.5913 23.9473 33.529 23.0195 33.6724C22.8383 33.7049 22.6515 33.674 22.4904 33.5848C22.3294 33.4956 22.2041 33.3536 22.1355 33.1827L18.9604 25.1365L25.5355 8.36716C25.8974 7.51994 26.0849 6.60848 26.0867 5.68721C26.1443 4.61363 25.9153 3.54405 25.4233 2.58812C24.9313 1.63219 24.1939 0.824301 23.2868 0.247272C23.0905 0.1225 22.8691 0.0427868 22.6383 0.0138712C22.4076 -0.0150444 22.1733 0.0075568 21.9524 0.0800478C21.7272 0.152318 21.5208 0.273394 21.3478 0.434637C21.1748 0.595879 21.0395 0.793315 20.9516 1.01286L15.2005 15.5951L9.44695 1.0066C9.35808 0.786336 9.22141 0.588555 9.04682 0.427529C8.87222 0.266504 8.66406 0.146251 8.43734 0.0754511C8.21742 0.00463496 7.98454 -0.016529 7.75546 0.0134834C7.52637 0.0434959 7.3068 0.123938 7.11255 0.249016C6.20556 0.82622 5.46832 1.63415 4.97632 2.59003C4.48433 3.54592 4.25527 4.61541 4.31261 5.68895C4.31341 6.60307 4.49814 7.50768 4.85581 8.34893L11.4405 25.1286L8.26457 33.1828C8.19674 33.3564 8.06983 33.5004 7.90622 33.5895C7.7426 33.6786 7.55278 33.7071 7.3702 33.67C6.90871 33.6018 6.44121 33.5835 5.97582 33.6156C2.56524 33.8884 -0.0485325 36.7608 0.000683675 40.1819V41.5995C0.00179322 45.0529 2.74031 47.8838 6.19186 47.9994ZM22.4228 1.59299C23.1029 2.02711 23.6537 2.63637 24.0172 3.35681C24.3806 4.07724 24.5434 4.88225 24.4883 5.68729C24.4865 6.40279 24.3393 7.11045 24.0555 7.76729L18.1004 22.9518L16.0597 17.7767L22.4228 1.59299ZM5.91107 5.69054C5.85604 4.88781 6.01713 4.085 6.37759 3.36564C6.73804 2.64628 7.28468 2.03666 7.96063 1.6002L20.6476 33.7709C21.0637 34.8177 22.1518 35.4342 23.2636 35.2532C23.614 35.1994 23.9692 35.1843 24.3228 35.2085C26.89 35.4309 28.8466 37.6032 28.8003 40.1795V41.5995C28.8018 44.1892 26.7486 46.3131 24.1604 46.3994C23.5346 46.4127 22.9124 46.3004 22.3307 46.0693C21.7489 45.8382 21.2194 45.4929 20.7733 45.0538C20.2783 44.5752 19.8841 44.0022 19.614 43.3689C19.3439 42.7355 19.2033 42.0544 19.2005 41.3659V36.3892C19.1962 34.9025 18.6058 33.4776 17.5573 32.4237L15.6221 30.4885C15.268 30.1332 14.9817 29.7162 14.7774 29.2581L6.33579 7.74724C6.05727 7.09723 5.91282 6.3977 5.91107 5.69054ZM1.60073 40.1819C1.55119 37.6021 3.51334 35.4271 6.08463 35.2116C6.43382 35.1879 6.7846 35.2012 7.13101 35.2517C8.24492 35.4392 9.33821 34.8217 9.75255 33.7709L12.2973 27.3158L13.3013 29.8758C13.5132 30.336 13.7849 30.7664 14.1093 31.1557L12.8429 32.4221C12.3202 32.9417 11.9059 33.56 11.624 34.241C11.3421 34.922 11.1981 35.6521 11.2005 36.3892V41.3651C11.1976 42.0517 11.0577 42.7309 10.789 43.3628C10.5203 43.9947 10.1282 44.5666 9.63573 45.045C9.18714 45.4836 8.6562 45.8291 8.07351 46.0615C7.49081 46.2939 6.86788 46.4088 6.2406 46.3994C3.65346 46.3106 1.60176 44.1882 1.60065 41.5995V40.1819H1.60073Z" fill="#676767"/>
</svg>
