<svg width="46" height="46" viewBox="0 0 46 46" fill="none" xmlns="http://www.w3.org/2000/svg">
<path d="M40.553 36.922H40.2704C40.5939 36.6227 40.8864 36.2671 41.1399 35.8555C41.7978 34.7879 42.1905 33.3469 42.1905 32.0012C42.1905 29.397 40.0718 27.2783 37.4677 27.2783C34.8635 27.2783 32.7474 29.397 32.7474 32.0012C32.7474 33.8436 33.4057 35.7582 34.6603 36.9221H34.3823C32.5864 36.9221 31.0089 37.815 30.1252 39.1524C29.2414 37.8151 27.6639 36.9221 25.868 36.9221H25.5835C25.9069 36.6227 26.1993 36.2671 26.4528 35.8554C27.1103 34.7877 27.5029 33.3469 27.5029 32.0012C27.5029 29.397 25.3854 27.2783 22.7827 27.2783C20.1799 27.2783 18.0598 29.397 18.0598 32.0012C18.0598 33.8436 18.7185 35.7582 19.9738 36.9221H19.6974C17.9004 36.9221 16.3221 37.8151 15.4378 39.1526C14.554 37.8151 12.9766 36.9221 11.1804 36.9221H10.9024C12.1569 35.7582 12.8152 33.8436 12.8152 32.0012C12.8152 29.397 10.6978 27.2783 8.09503 27.2783C5.49225 27.2783 3.37228 29.397 3.37228 32.0012C3.37228 33.347 3.76491 34.7879 4.42275 35.8555C4.67634 36.2671 4.96884 36.6227 5.29237 36.922H5.00981C2.24737 36.922 0 39.0311 0 41.6236V44.4963C0 44.6952 0.0790177 44.8859 0.21967 45.0266C0.360322 45.1672 0.551088 45.2463 0.75 45.2463C0.948912 45.2463 1.13968 45.1672 1.28033 45.0266C1.42098 44.8859 1.5 44.6952 1.5 44.4963V41.6236C1.5 39.8582 3.07444 38.422 5.00981 38.422H11.1803C13.1142 38.422 14.6874 39.8583 14.6874 41.6236V44.4963C14.6874 44.6952 14.7665 44.8859 14.9071 45.0266C15.0478 45.1672 15.2385 45.2463 15.4374 45.2463C15.6363 45.2463 15.8271 45.1672 15.9678 45.0266C16.1084 44.8859 16.1874 44.6952 16.1874 44.4963V41.6236C16.1874 39.8582 17.762 38.422 19.6972 38.422H25.8677C27.8016 38.422 29.3749 39.8583 29.3749 41.6236V44.4963C29.3749 44.6952 29.4539 44.8859 29.5945 45.0266C29.7352 45.1672 29.926 45.2463 30.1249 45.2463C30.3238 45.2463 30.5145 45.1672 30.6552 45.0266C30.7959 44.8859 30.8749 44.6952 30.8749 44.4963V41.6236C30.8749 39.8582 32.4482 38.422 34.3821 38.422H40.5525C42.4879 38.422 44.0623 39.8583 44.0623 41.6236V44.4963C44.0623 44.6952 44.1413 44.8859 44.282 45.0266C44.4226 45.1672 44.6134 45.2463 44.8123 45.2463C45.0112 45.2463 45.202 45.1672 45.3426 45.0266C45.4833 44.8859 45.5623 44.6952 45.5623 44.4963V41.6236C45.5623 39.0311 43.3148 36.922 40.5525 36.922H40.553ZM34.2475 32.0011C34.2475 30.224 35.6921 28.7782 37.4677 28.7782C39.2434 28.7782 40.6906 30.2239 40.6906 32.0011C40.6906 33.7516 39.8156 36.5287 37.4677 36.5287C35.2466 36.5287 34.2475 33.8811 34.2475 32.0011ZM19.56 32.0011C19.56 30.224 21.0058 28.7782 22.7828 28.7782C24.5599 28.7782 26.0031 30.2239 26.0031 32.0011C26.0031 33.7516 25.1288 36.5287 22.7828 36.5287C20.5598 36.5287 19.56 33.8811 19.56 32.0011ZM4.87256 32.0011C4.87256 30.224 6.31828 28.7782 8.09531 28.7782C9.87234 28.7782 11.3155 30.2239 11.3155 32.0011C11.3155 33.881 10.3165 36.5287 8.09531 36.5287C5.74753 36.5287 4.87256 33.7516 4.87256 32.0011Z" fill="#676767"/>
<path d="M9.04089 22.7135C9.65505 23.331 10.408 23.6441 11.2788 23.6441C12.1408 23.6441 12.9152 23.3218 13.5168 22.7133L15.5566 20.6604V26.5321C15.5566 26.731 15.6356 26.9218 15.7763 27.0624C15.9169 27.2031 16.1077 27.2821 16.3066 27.2821C16.5055 27.2821 16.6963 27.2031 16.8369 27.0624C16.9776 26.9218 17.0566 26.731 17.0566 26.5321V18.8416C17.0566 18.6931 17.0125 18.5478 16.9299 18.4244C16.8473 18.301 16.7299 18.2048 16.5925 18.1482C16.4552 18.0916 16.3041 18.077 16.1585 18.1063C16.0129 18.1357 15.8793 18.2076 15.7746 18.3129L12.4514 21.6573C12.1276 21.9848 11.744 22.1441 11.2788 22.1441C10.8136 22.1441 10.4313 21.9844 10.1051 21.6563L4.70271 16.2115C4.39511 15.9012 4.22655 15.487 4.22814 15.0454C4.22992 14.6038 4.40149 14.1913 4.71142 13.884C5.02174 13.5763 5.43461 13.4072 5.87477 13.4072H5.8803C6.32186 13.4086 6.73427 13.5802 7.04167 13.8901L10.7488 17.629C10.8185 17.6994 10.9014 17.7552 10.9928 17.7933C11.0842 17.8313 11.1822 17.8509 11.2812 17.8509H11.2814C11.3804 17.8509 11.4784 17.8314 11.5697 17.7933C11.6611 17.7553 11.744 17.6995 11.8137 17.6293L15.0534 14.3658C16.1787 13.231 17.5597 12.6557 19.158 12.6557H20.3095C20.2586 13.0898 20.3156 13.5495 20.4631 13.8303L20.4676 13.8387C20.5906 14.0641 20.7526 14.2659 20.9462 14.4346L19.8079 22.4404C19.7923 22.5501 19.8012 22.6619 19.8339 22.7677C19.8667 22.8736 19.9225 22.9709 19.9974 23.0526L22.11 25.3592C22.1802 25.4359 22.2656 25.4971 22.3608 25.539C22.456 25.5809 22.5588 25.6026 22.6628 25.6027H22.663C22.767 25.6026 22.8698 25.581 22.965 25.5392C23.0601 25.4973 23.1455 25.4362 23.2158 25.3596L25.3311 23.0529C25.406 22.9712 25.4619 22.8739 25.4947 22.768C25.5275 22.6621 25.5364 22.5502 25.5207 22.4405L24.3824 14.4347C24.5767 14.2656 24.7385 14.0626 24.8602 13.8356C25.0111 13.5535 25.0699 13.0913 25.019 12.6559H26.1707C27.7691 12.6559 29.15 13.2312 30.2755 14.366L33.5121 17.6292C33.5818 17.6995 33.6648 17.7553 33.7562 17.7933C33.8476 17.8314 33.9456 17.851 34.0446 17.851C34.1437 17.8509 34.2417 17.8313 34.3331 17.7933C34.4245 17.7552 34.5074 17.6994 34.5772 17.6291L38.2836 13.8909C38.5923 13.5804 39.0056 13.4087 39.4476 13.4073H39.4532C39.8929 13.4073 40.3049 13.5762 40.6146 13.8841C40.9253 14.1922 41.0972 14.6052 41.0989 15.0472C41.1005 15.4882 40.9318 15.9014 40.6236 16.2114L35.2201 21.6574C34.8961 21.985 34.5125 22.1442 34.0473 22.1442C33.5821 22.1442 33.1999 21.9845 32.8735 21.6562L29.5543 18.3132C29.4497 18.2078 29.316 18.1358 29.1704 18.1065C29.0248 18.0771 28.8737 18.0916 28.7364 18.1482C28.599 18.2048 28.4816 18.3009 28.3989 18.4244C28.3163 18.5478 28.2721 18.693 28.2721 18.8416V26.5321C28.2721 26.731 28.3511 26.9218 28.4918 27.0624C28.6324 27.2031 28.8232 27.2821 29.0221 27.2821C29.221 27.2821 29.4118 27.2031 29.5524 27.0624C29.6931 26.9218 29.7721 26.731 29.7721 26.5321V20.6615L31.8094 22.7134C32.4235 23.331 33.1764 23.6441 34.0472 23.6441C34.918 23.6441 35.6749 23.3305 36.2857 22.7128L41.6876 17.2684C42.2782 16.6745 42.6017 15.8837 42.5988 15.0416C42.5958 14.1986 42.2661 13.4093 41.6713 12.8196C41.0794 12.2309 40.292 11.9071 39.4533 11.9071H39.4427C38.6004 11.9098 37.811 12.2387 37.2191 12.8339L34.0445 16.0358L31.3405 13.3096C29.923 11.8804 28.1836 11.1558 26.1706 11.1558H25.5824C26.0417 10.7798 26.4525 10.3049 26.8059 9.73162C27.555 8.51625 28.0023 6.87422 28.0023 5.33934C28.0023 2.39522 25.6071 0 22.663 0C19.7188 0 17.3236 2.39522 17.3236 5.33934C17.3236 7.55728 18.1605 9.86663 19.75 11.1558H19.1578C17.1448 11.1558 15.4055 11.8804 13.9883 13.3093L11.2815 16.036L8.10667 12.8339C7.5168 12.239 6.72789 11.9098 5.88517 11.9071C5.04152 11.9019 4.25083 12.2281 3.65524 12.8187C3.06058 13.4083 2.73133 14.197 2.72805 15.0396C2.72496 15.8816 3.04783 16.6729 3.63761 17.2677L9.04071 22.7134L9.04089 22.7135ZM23.5116 12.7151C23.5418 12.823 23.5495 13.0494 23.5252 13.1505C23.463 13.2563 23.362 13.3486 23.2446 13.4061C23.1024 13.4757 22.9859 13.5886 22.9118 13.7286C22.8377 13.8685 22.8098 14.0284 22.8322 14.1851L23.986 22.3005L22.6636 23.7427L21.343 22.3008L22.4969 14.1851C22.5192 14.0283 22.4914 13.8685 22.4173 13.7286C22.3432 13.5886 22.2266 13.4757 22.0844 13.4061C21.9688 13.3494 21.8676 13.2578 21.8026 13.1519C21.7788 13.0485 21.7867 12.8228 21.8167 12.7135C21.8723 12.6666 21.9528 12.6559 22.0149 12.6559H23.3116C23.3537 12.6559 23.4495 12.6619 23.5118 12.7152L23.5116 12.7151ZM18.8237 5.33934C18.8237 3.22228 20.546 1.5 22.663 1.5C24.7801 1.5 26.5024 3.22228 26.5024 5.33934C26.5024 7.40625 25.4601 10.6854 22.663 10.6854C19.866 10.6854 18.8237 7.40625 18.8237 5.33934Z" fill="#676767"/>
<path d="M32.1794 9.58378H32.6837V11.462C32.6837 11.6034 32.7237 11.742 32.799 11.8616C32.8744 11.9813 32.9821 12.0773 33.1096 12.1384C33.2372 12.1995 33.3794 12.2233 33.5199 12.207C33.6604 12.1908 33.7934 12.1351 33.9036 12.0465L36.9665 9.58378H40.7523C41.9 9.58378 42.8336 8.65013 42.8336 7.50244V2.08134C42.8336 0.933656 41.9 0 40.7523 0H32.1795C31.0318 0 30.0981 0.933656 30.0981 2.08134V7.50244C30.0981 8.65013 31.0318 9.58378 32.1795 9.58378H32.1794ZM31.5981 2.08134C31.5982 1.92722 31.6595 1.77945 31.7685 1.67046C31.8775 1.56148 32.0253 1.50017 32.1794 1.5H40.7522C40.9063 1.50017 41.0541 1.56148 41.1631 1.67046C41.272 1.77945 41.3333 1.92722 41.3335 2.08134V7.50244C41.3333 7.65657 41.272 7.80433 41.1631 7.91332C41.0541 8.0223 40.9063 8.08361 40.7522 8.08378H36.7023C36.5313 8.0838 36.3655 8.14218 36.2323 8.24925L34.1836 9.89653V8.83378C34.1836 8.63487 34.1046 8.4441 33.9639 8.30345C33.8233 8.1628 33.6325 8.08378 33.4336 8.08378H32.1793C32.0252 8.08361 31.8774 8.0223 31.7684 7.91332C31.6594 7.80433 31.5981 7.65657 31.598 7.50244V2.08134H31.5981Z" fill="#676767"/>
<path d="M33.6543 6.76415H39.2773C39.4762 6.76415 39.667 6.68513 39.8077 6.54448C39.9483 6.40383 40.0273 6.21306 40.0273 6.01415C40.0273 5.81524 39.9483 5.62447 39.8077 5.48382C39.667 5.34317 39.4762 5.26415 39.2773 5.26415H33.6543C33.4554 5.26415 33.2646 5.34317 33.124 5.48382C32.9833 5.62447 32.9043 5.81524 32.9043 6.01415C32.9043 6.21306 32.9833 6.40383 33.124 6.54448C33.2646 6.68513 33.4554 6.76415 33.6543 6.76415ZM35.5676 4.31934H39.2773C39.4762 4.31934 39.667 4.24032 39.8077 4.09967C39.9483 3.95901 40.0273 3.76825 40.0273 3.56934C40.0273 3.37042 39.9483 3.17966 39.8077 3.03901C39.667 2.89835 39.4762 2.81934 39.2773 2.81934H35.5676C35.3687 2.81934 35.178 2.89835 35.0373 3.03901C34.8967 3.17966 34.8176 3.37042 34.8176 3.56934C34.8176 3.76825 34.8967 3.95901 35.0373 4.09967C35.178 4.24032 35.3687 4.31934 35.5676 4.31934ZM33.6551 4.31934C34.0694 4.31934 34.4051 3.98352 34.4051 3.56934C34.4051 3.15515 34.0694 2.81934 33.6551 2.81934H33.6542C33.24 2.81934 32.9047 3.15515 32.9047 3.56934C32.9047 3.98352 33.241 4.31934 33.6551 4.31934Z" fill="#676767"/>
</svg>
