<svg width="48" height="48" viewBox="0 0 48 48" fill="none" xmlns="http://www.w3.org/2000/svg">
<path d="M7.80021 38.3951C8.21496 38.3951 8.55508 38.7248 8.55508 39.1391C8.55508 39.5535 8.21496 39.894 7.80021 39.894H2.19808C1.90915 39.8953 1.6229 39.8385 1.35629 39.7272C1.08968 39.6158 0.848129 39.452 0.645956 39.2456C0.439498 39.0435 0.275727 38.8019 0.164352 38.5353C0.0529779 38.2687 -0.00373329 37.9824 -0.00241908 37.6935V2.2005C-0.00241908 1.5945 0.242081 1.05225 0.645956 0.648375C1.05021 0.2445 1.59246 0 2.19808 0H45.7911C46.3975 0 46.9498 0.2445 47.3541 0.648375C47.7475 1.05225 48.0025 1.5945 48.0025 2.2005V37.6935C48.0025 38.2995 47.7475 38.8522 47.3541 39.2456C47.1492 39.4514 46.9056 39.6146 46.6373 39.7259C46.3691 39.8372 46.0815 39.8943 45.7911 39.894H43.6232C43.2088 39.894 42.868 39.5539 42.868 39.1391C42.868 38.7244 43.2085 38.3951 43.6232 38.3951H45.7911C45.9932 38.3951 46.1631 38.31 46.2913 38.1825C46.4188 38.055 46.5036 37.8851 46.5036 37.6935V2.2005C46.5036 2.00925 46.4185 1.839 46.2913 1.7115C46.2263 1.64452 46.1486 1.5912 46.0627 1.55469C45.9768 1.51817 45.8844 1.4992 45.7911 1.49888H2.19808C2.00683 1.49888 1.83658 1.584 1.70908 1.7115C1.58158 1.839 1.49646 2.00925 1.49646 2.2005V37.6935C1.49646 37.8851 1.58158 38.055 1.70908 38.1825C1.83658 38.3104 2.00646 38.3951 2.19808 38.3951H7.80021Z" fill="#676767"/>
<path d="M0.752441 6.67529H47.2479V8.17417H0.752441V6.67529Z" fill="#676767"/>
<path fill-rule="evenodd" clip-rule="evenodd" d="M4.46226 3.35889C4.65388 3.35918 4.83757 3.43547 4.97303 3.571C5.1085 3.70654 5.18468 3.89026 5.18488 4.08189C5.18488 4.48576 4.86613 4.81539 4.46226 4.81539C4.05838 4.81539 3.73926 4.48576 3.73926 4.08189C3.73946 3.8902 3.81569 3.70641 3.95124 3.57087C4.08678 3.43532 4.27057 3.35909 4.46226 3.35889ZM10.7979 3.35889C10.9895 3.35918 11.1732 3.43547 11.3087 3.571C11.4441 3.70654 11.5203 3.89026 11.5205 4.08189C11.5205 4.48576 11.2018 4.81539 10.7979 4.81539C10.6035 4.81499 10.4171 4.73758 10.2797 4.60011C10.1422 4.46264 10.0648 4.2763 10.0644 4.08189C10.0644 3.68851 10.3936 3.35889 10.7979 3.35889ZM7.63026 3.35889C7.82188 3.35918 8.00557 3.43547 8.14103 3.571C8.2765 3.70654 8.35268 3.89026 8.35288 4.08189C8.35288 4.48576 8.03413 4.81539 7.63026 4.81539C7.22638 4.81539 6.89676 4.48576 6.89676 4.08189C6.89676 3.68851 7.22638 3.35889 7.63026 3.35889Z" fill="#676767"/>
<path d="M42.5917 3.3374C43.0061 3.3374 43.3357 3.66703 43.3357 4.0814C43.3357 4.49578 43.0061 4.83628 42.5917 4.83628H17.0692C16.6548 4.83628 16.3143 4.49615 16.3143 4.0814C16.3143 3.66665 16.6548 3.3374 17.0692 3.3374H42.5917ZM24.1488 39.0858L25.3822 44.2518C25.408 44.3665 25.407 44.4856 25.3793 44.5999C25.3516 44.7141 25.2979 44.8205 25.2225 44.9106L22.8412 47.7381C22.5225 48.1101 21.9378 48.0783 21.6615 47.6849L18.951 43.9859C18.7383 43.6881 18.7597 43.2948 18.9933 43.0401L22.8521 38.7138C23.2665 38.2356 24.0532 38.4693 24.1488 39.0858ZM23.8406 44.2308L23.0115 40.7759L20.5132 43.582L22.3098 46.0375L23.8406 44.2308ZM17.9407 37.1406L14.4011 37.4598L13.1786 39.49L16.0803 40.4043L17.9407 37.1406ZM13.8907 36.0138L19.2056 35.5248C19.3545 35.5034 19.5243 35.5248 19.6732 35.6099C20.0242 35.8116 20.1517 36.2691 19.9496 36.6306L17.1112 41.6264C17.0313 41.788 16.8968 41.9162 16.7314 41.9882C16.5661 42.0602 16.3806 42.0714 16.2078 42.0198L11.8177 40.6274C11.7097 40.5942 11.6108 40.5368 11.5284 40.4595C11.446 40.3821 11.3824 40.287 11.3424 40.1814C11.3024 40.0757 11.2871 39.9623 11.2977 39.8498C11.3082 39.7373 11.3444 39.6288 11.4033 39.5324L13.3166 36.3648C13.3775 36.2648 13.4613 36.1808 13.5612 36.1198C13.661 36.0587 13.774 36.0224 13.8907 36.0138Z" fill="#676767"/>
<path d="M28.8899 17.9221C29.9534 16.4446 32.2064 14.3506 34.4073 13.181C36.193 12.2243 37.9784 11.8628 39.2646 12.7771C40.5081 13.67 40.7215 15.4985 40.3919 17.5182C39.9876 19.9737 38.7651 22.7798 37.7125 24.2465C37.691 24.2774 37.6663 24.306 37.6386 24.3316L19.7695 44.4331L19.7058 44.4968C19.27 44.9221 18.7278 45.1137 18.175 45.1137C17.569 45.1242 16.9416 44.9011 16.4635 44.5501V44.5606C15.9854 44.21 15.5706 43.6891 15.3794 43.1153C15.1986 42.5622 15.2091 41.9671 15.5174 41.3933L15.5493 41.3611L28.8471 17.9862C28.8584 17.9645 28.8798 17.9435 28.8899 17.9221ZM35.1081 14.4995C33.1203 15.5517 31.09 17.4331 30.1233 18.7726L16.8464 42.0942L16.8359 42.1156C16.7403 42.2753 16.7508 42.4666 16.804 42.6473C16.8996 42.9128 17.1014 43.1682 17.3354 43.3381C17.5799 43.5083 17.8776 43.6253 18.1645 43.6253C18.3453 43.6148 18.5046 43.5721 18.6216 43.4555L18.643 43.4341L36.5118 23.3435C37.4579 22.0148 38.542 19.4956 38.914 17.2846C39.1585 15.7857 39.0846 14.489 38.383 14C37.66 13.4682 36.4161 13.7975 35.1081 14.4995Z" fill="#676767"/>
<path d="M10.5003 20.3456L26.7213 22.5885C27.2531 22.6631 27.5291 23.2687 27.2531 23.7154L23.3943 30.3697C23.2031 30.6994 22.7992 30.8374 22.4587 30.6889L7.06683 24.045C6.68396 23.8856 6.50358 23.439 6.67346 23.067C6.73721 22.9181 6.83283 22.8011 6.96033 22.7269L9.94721 20.4945C10.1068 20.3781 10.3039 20.3251 10.5003 20.3456ZM25.4141 23.9171L10.5963 21.8764L8.84246 23.1836L22.4381 29.0404L25.4141 23.9171ZM39.828 42.8381L33.1425 29.4656L29.241 33.9304L39.1485 44.9216L39.828 42.8381ZM33.9817 27.7969L41.2848 42.4024C41.391 42.5831 41.4225 42.8062 41.3486 43.0192L40.179 46.5907C40.02 47.154 39.297 47.3239 38.904 46.8881L27.6888 34.4299C27.5642 34.296 27.4941 34.1203 27.4922 33.9374C27.4903 33.7545 27.5568 33.5774 27.6787 33.441L32.7596 27.648C32.8192 27.5713 32.8956 27.5095 32.9831 27.4672C33.3547 27.2869 33.801 27.4354 33.9817 27.7969ZM34.3222 18.783C34.1252 18.7568 33.9466 18.6539 33.8251 18.4967C33.7036 18.3394 33.6491 18.1406 33.6735 17.9434C33.7271 17.5395 34.0991 17.2522 34.5135 17.295C34.8746 17.3482 35.2365 17.4649 35.5548 17.6456C35.8732 17.8264 36.1605 18.0817 36.384 18.3791C36.639 18.6982 36.5752 19.1659 36.2565 19.4209C36.0994 19.542 35.901 19.5964 35.704 19.5726C35.5071 19.5487 35.3275 19.4485 35.2038 19.2934C35.1019 19.15 34.967 19.0334 34.8105 18.9532C34.6632 18.8592 34.496 18.8009 34.3222 18.783ZM8.47008 12.15C8.05571 12.15 7.72608 11.8099 7.72608 11.3951C7.72608 10.9804 8.05571 10.6511 8.47008 10.6511H20.2162C20.6306 10.6511 20.9602 10.9807 20.9602 11.3951C20.9602 11.8095 20.6306 12.15 20.2162 12.15H8.47008ZM8.47008 16.1572C8.05571 16.1572 7.72608 15.8171 7.72608 15.4024C7.72608 14.9876 8.05571 14.6584 8.47008 14.6584H24.2985C24.7125 14.6584 25.0417 14.988 25.0417 15.4024C25.0417 15.8167 24.7121 16.1572 24.2985 16.1572H8.47008Z" fill="#676767"/>
</svg>
