<svg width="40" height="48" viewBox="0 0 40 48" fill="none" xmlns="http://www.w3.org/2000/svg">
<path d="M29.0625 40.2188C28.545 40.2188 28.125 40.6388 28.125 41.1562C28.125 41.6738 28.545 42.0938 29.0625 42.0938C29.58 42.0938 30 41.6738 30 41.1562C30 40.6388 29.58 40.2188 29.0625 40.2188ZM10.3125 40.2188C9.795 40.2188 9.375 40.6388 9.375 41.1562C9.375 41.6738 9.795 42.0938 10.3125 42.0938C10.83 42.0938 11.25 41.6738 11.25 41.1562C11.25 40.6388 10.83 40.2188 10.3125 40.2188Z" fill="#676767"/>
<path d="M37.6542 35.3634C36.5989 33.7299 35.1487 32.432 33.4498 31.5938C33.3033 31.457 33.1166 31.3711 32.9175 31.3488C31.6887 30.8272 30.3935 30.5625 29.0625 30.5625H26.25V28.0891C27.8752 26.6944 29.0469 24.8461 29.6151 22.7812H30C32.0677 22.7812 33.75 21.099 33.75 19.0312C33.75 18.0514 33.3718 17.1585 32.7542 16.4897C32.8136 16.4396 32.8709 16.387 32.926 16.3323C33.4574 15.8009 33.75 15.0947 33.75 14.3438C33.75 13.1097 32.9507 12.0594 31.8428 11.6816C31.5116 7.37062 28.486 3.68663 24.3202 2.532C24.0734 1.24275 23.0094 0 21.5625 0H17.8125C16.3656 0 15.3016 1.24275 15.0548 2.532C10.8893 3.68653 7.86403 7.36987 7.53225 11.6803C7.12405 11.819 6.75335 12.0499 6.44897 12.3552C5.91759 12.8866 5.625 13.5928 5.625 14.3438C5.625 15.2028 6.01256 15.9727 6.62156 16.4889C6.00356 17.1578 5.625 18.051 5.625 19.0312C5.625 21.099 7.30725 22.7812 9.375 22.7812H9.75731C10.2309 24.5022 11.129 26.0822 12.3818 27.3873C12.6181 27.6328 12.8661 27.8668 13.125 28.0883V30.5625H10.3125C8.98144 30.5625 7.68619 30.8272 6.4575 31.3487C6.25839 31.3711 6.07177 31.457 5.92528 31.5937C4.22625 32.432 2.77613 33.7299 1.72078 35.3633C0.595031 37.1059 0 39.109 0 41.1562V47.0625C0 47.5802 0.419719 48 0.9375 48H38.4375C38.9553 48 39.375 47.5802 39.375 47.0625V41.1562C39.375 39.109 38.78 37.1059 37.6542 35.3634ZM5.625 46.125H1.875V41.1562C1.875 38.3047 3.33581 35.5715 5.625 33.9489V46.125ZM30 20.9062H29.9573C29.9852 20.5943 30 20.2813 30 19.9688V17.1562C31.0339 17.1562 31.875 17.9974 31.875 19.0312C31.875 20.0651 31.0339 20.9062 30 20.9062ZM15 4.51303V8.71875C15 9.23653 15.4197 9.65625 15.9375 9.65625C16.4553 9.65625 16.875 9.23653 16.875 8.71875V3.09375C16.875 2.51288 17.3657 1.875 17.8125 1.875H21.5625C22.0093 1.875 22.5 2.51288 22.5 3.09375V8.71875C22.5 9.23653 22.9197 9.65625 23.4375 9.65625C23.9553 9.65625 24.375 9.23653 24.375 8.71875V4.51303C27.4022 5.58431 29.5875 8.32369 29.9476 11.5312H9.42741C9.7875 8.32369 11.9728 5.58431 15 4.51303ZM9.375 20.9062C8.34113 20.9062 7.5 20.0651 7.5 19.0312C7.5 17.9974 8.34113 17.1562 9.375 17.1562V19.9688C9.375 20.2813 9.38981 20.5944 9.41775 20.9062H9.375ZM9.375 15.2812H8.4375C7.92056 15.2812 7.5 14.8607 7.5 14.3438C7.4997 14.2206 7.52384 14.0986 7.571 13.9849C7.61817 13.8712 7.68743 13.7679 7.77478 13.6811C7.86158 13.5938 7.96485 13.5245 8.07861 13.4773C8.19236 13.4301 8.31435 13.406 8.4375 13.4062H30.9375C31.4544 13.4062 31.875 13.8268 31.875 14.3438C31.8753 14.4669 31.8512 14.5889 31.804 14.7026C31.7568 14.8163 31.6876 14.9196 31.6002 15.0064C31.5134 15.0938 31.4102 15.163 31.2964 15.2102C31.1826 15.2574 31.0607 15.2815 30.9375 15.2812H9.375ZM11.4203 21.6734C11.4185 21.6632 11.4167 21.6531 11.4144 21.643C11.3053 21.0916 11.2503 20.5309 11.25 19.9688V17.1562H28.125V19.9688C28.125 20.5292 28.0694 21.092 27.9606 21.6427C27.9583 21.6528 27.9565 21.663 27.9547 21.6732C27.5348 23.7663 26.375 25.638 24.6877 26.9458C23.2209 28.0852 21.4919 28.6875 19.6875 28.6875C17.8831 28.6875 16.1541 28.0853 14.6858 26.9448C14.3482 26.6834 14.0303 26.3974 13.7347 26.0892C12.5521 24.8572 11.7522 23.3308 11.4203 21.6734ZM18.75 46.125H11.25V43.9688C11.25 43.451 10.8303 43.0312 10.3125 43.0312C9.79472 43.0312 9.375 43.451 9.375 43.9688V46.125H7.5V32.9507C8.10405 32.7224 8.73371 32.5687 9.375 32.493V38.3438C9.375 38.8615 9.79472 39.2812 10.3125 39.2812C10.8303 39.2812 11.25 38.8615 11.25 38.3438V32.4375H13.6608L18.75 37.7812V46.125ZM15 31.125V29.3788C16.4467 30.1565 18.04 30.5625 19.6875 30.5625C21.3351 30.5625 22.9285 30.1564 24.375 29.3789V31.125L19.6875 36.0469L15 31.125ZM31.875 46.125H30V43.9688C30 43.451 29.5803 43.0312 29.0625 43.0312C28.5447 43.0312 28.125 43.451 28.125 43.9688V46.125H20.625V37.7812L25.7142 32.4375H28.125V38.3438C28.125 38.8615 28.5447 39.2812 29.0625 39.2812C29.5803 39.2812 30 38.8615 30 38.3438V32.493C30.6413 32.5687 31.271 32.7225 31.875 32.9508V46.125ZM37.5 46.125H33.75V33.9488C36.0392 35.5714 37.5 38.3046 37.5 41.1562V46.125Z" fill="#676767"/>
</svg>
