<svg width="125" height="132" viewBox="0 0 125 132" fill="none" xmlns="http://www.w3.org/2000/svg">
<g filter="url(#filter0_i_375_989)">
<path d="M62.5 21.875L75 43.75H100L112.5 21.875H87.5L75 0L62.5 21.875Z" fill="white" fill-opacity="0.02"/>
<path d="M62.5 21.875L75 43.75H100L112.5 21.875H87.5L75 0L62.5 21.875Z" fill="url(#paint0_linear_375_989)" fill-opacity="0.2"/>
<path d="M100 87.5L87.5 65.625L100 43.75H125L112.5 65.625L125 87.5H100Z" fill="white" fill-opacity="0.02"/>
<path d="M100 87.5L87.5 65.625L100 43.75H125L112.5 65.625L125 87.5H100Z" fill="url(#paint1_linear_375_989)" fill-opacity="0.2"/>
<path d="M62.5 109.375L75 87.5H100L112.5 109.375H87.5L75 131.25L62.5 109.375Z" fill="white" fill-opacity="0.02"/>
<path d="M62.5 109.375L75 87.5H100L112.5 109.375H87.5L75 131.25L62.5 109.375Z" fill="url(#paint2_linear_375_989)" fill-opacity="0.2"/>
<path d="M62.5 109.375L50 87.5H25L12.5 109.375H37.5L50 131.25L62.5 109.375Z" fill="white" fill-opacity="0.02"/>
<path d="M62.5 109.375L50 87.5H25L12.5 109.375H37.5L50 131.25L62.5 109.375Z" fill="url(#paint3_linear_375_989)" fill-opacity="0.2"/>
<path d="M25 87.5L37.5 65.625L25 43.75H0L12.5 65.625L0 87.5H25Z" fill="white" fill-opacity="0.02"/>
<path d="M25 87.5L37.5 65.625L25 43.75H0L12.5 65.625L0 87.5H25Z" fill="url(#paint4_linear_375_989)" fill-opacity="0.2"/>
<path d="M62.5 21.875L50 43.75H25L12.5 21.875H37.5L50 0L62.5 21.875Z" fill="white" fill-opacity="0.02"/>
<path d="M62.5 21.875L50 43.75H25L12.5 21.875H37.5L50 0L62.5 21.875Z" fill="url(#paint5_linear_375_989)" fill-opacity="0.2"/>
</g>
<defs>
<filter id="filter0_i_375_989" x="0" y="0" width="125" height="131.25" filterUnits="userSpaceOnUse" color-interpolation-filters="sRGB">
<feFlood flood-opacity="0" result="BackgroundImageFix"/>
<feBlend mode="normal" in="SourceGraphic" in2="BackgroundImageFix" result="shape"/>
<feColorMatrix in="SourceAlpha" type="matrix" values="0 0 0 0 0 0 0 0 0 0 0 0 0 0 0 0 0 0 127 0" result="hardAlpha"/>
<feOffset/>
<feGaussianBlur stdDeviation="6"/>
<feComposite in2="hardAlpha" operator="arithmetic" k2="-1" k3="1"/>
<feColorMatrix type="matrix" values="0 0 0 0 1 0 0 0 0 1 0 0 0 0 1 0 0 0 0.2 0"/>
<feBlend mode="normal" in2="shape" result="effect1_innerShadow_375_989"/>
</filter>
<linearGradient id="paint0_linear_375_989" x1="62.5" y1="-63.114" x2="62.5" y2="131.25" gradientUnits="userSpaceOnUse">
<stop stop-color="white"/>
<stop offset="0.773658" stop-color="white" stop-opacity="0"/>
</linearGradient>
<linearGradient id="paint1_linear_375_989" x1="62.5" y1="-63.114" x2="62.5" y2="131.25" gradientUnits="userSpaceOnUse">
<stop stop-color="white"/>
<stop offset="0.773658" stop-color="white" stop-opacity="0"/>
</linearGradient>
<linearGradient id="paint2_linear_375_989" x1="62.5" y1="-63.114" x2="62.5" y2="131.25" gradientUnits="userSpaceOnUse">
<stop stop-color="white"/>
<stop offset="0.773658" stop-color="white" stop-opacity="0"/>
</linearGradient>
<linearGradient id="paint3_linear_375_989" x1="62.5" y1="-63.114" x2="62.5" y2="131.25" gradientUnits="userSpaceOnUse">
<stop stop-color="white"/>
<stop offset="0.773658" stop-color="white" stop-opacity="0"/>
</linearGradient>
<linearGradient id="paint4_linear_375_989" x1="62.5" y1="-63.114" x2="62.5" y2="131.25" gradientUnits="userSpaceOnUse">
<stop stop-color="white"/>
<stop offset="0.773658" stop-color="white" stop-opacity="0"/>
</linearGradient>
<linearGradient id="paint5_linear_375_989" x1="62.5" y1="-63.114" x2="62.5" y2="131.25" gradientUnits="userSpaceOnUse">
<stop stop-color="white"/>
<stop offset="0.773658" stop-color="white" stop-opacity="0"/>
</linearGradient>
</defs>
</svg>
