<svg width="150" height="150" viewBox="0 0 150 150" fill="none" xmlns="http://www.w3.org/2000/svg">
<g filter="url(#filter0_i_375_991)">
<path d="M75 128.125L109.375 146.875L143.75 128.125V84.375L109.375 106.25L75 84.375V128.125Z" fill="white" fill-opacity="0.02"/>
<path d="M75 128.125L109.375 146.875L143.75 128.125V84.375L109.375 106.25L75 84.375V128.125Z" fill="url(#paint0_linear_375_991)" fill-opacity="0.2"/>
<path d="M6.25 84.375L40.625 65.625L75 84.375L40.625 106.25V146.875L6.25 128.125V84.375Z" fill="white" fill-opacity="0.02"/>
<path d="M6.25 84.375L40.625 65.625L75 84.375L40.625 106.25V146.875L6.25 128.125V84.375Z" fill="url(#paint1_linear_375_991)" fill-opacity="0.2"/>
<path d="M109.375 65.625L75 84.375V43.75L40.625 21.875L75 3.125L109.375 21.875V65.625Z" fill="white" fill-opacity="0.02"/>
<path d="M109.375 65.625L75 84.375V43.75L40.625 21.875L75 3.125L109.375 21.875V65.625Z" fill="url(#paint2_linear_375_991)" fill-opacity="0.2"/>
</g>
<defs>
<filter id="filter0_i_375_991" x="6.25" y="3.125" width="137.5" height="143.75" filterUnits="userSpaceOnUse" color-interpolation-filters="sRGB">
<feFlood flood-opacity="0" result="BackgroundImageFix"/>
<feBlend mode="normal" in="SourceGraphic" in2="BackgroundImageFix" result="shape"/>
<feColorMatrix in="SourceAlpha" type="matrix" values="0 0 0 0 0 0 0 0 0 0 0 0 0 0 0 0 0 0 127 0" result="hardAlpha"/>
<feOffset/>
<feGaussianBlur stdDeviation="6"/>
<feComposite in2="hardAlpha" operator="arithmetic" k2="-1" k3="1"/>
<feColorMatrix type="matrix" values="0 0 0 0 1 0 0 0 0 1 0 0 0 0 1 0 0 0 0.2 0"/>
<feBlend mode="normal" in2="shape" result="effect1_innerShadow_375_991"/>
</filter>
<linearGradient id="paint0_linear_375_991" x1="75" y1="-65.9999" x2="75" y2="146.875" gradientUnits="userSpaceOnUse">
<stop stop-color="white"/>
<stop offset="0.773658" stop-color="white" stop-opacity="0"/>
</linearGradient>
<linearGradient id="paint1_linear_375_991" x1="75" y1="-65.9999" x2="75" y2="146.875" gradientUnits="userSpaceOnUse">
<stop stop-color="white"/>
<stop offset="0.773658" stop-color="white" stop-opacity="0"/>
</linearGradient>
<linearGradient id="paint2_linear_375_991" x1="75" y1="-65.9999" x2="75" y2="146.875" gradientUnits="userSpaceOnUse">
<stop stop-color="white"/>
<stop offset="0.773658" stop-color="white" stop-opacity="0"/>
</linearGradient>
</defs>
</svg>
