<svg width="150" height="150" viewBox="0 0 150 150" fill="none" xmlns="http://www.w3.org/2000/svg">
<g filter="url(#filter0_i_359_269)">
<path d="M43.75 75L75 43.75L106.25 75L75 106.25L43.75 75Z" fill="white" fill-opacity="0.02"/>
<path d="M43.75 75L75 43.75L106.25 75L75 106.25L43.75 75Z" fill="url(#paint0_linear_359_269)" fill-opacity="0.2"/>
<path d="M137.5 37.5V75L75 12.5H112.5L137.5 37.5Z" fill="white" fill-opacity="0.02"/>
<path d="M137.5 37.5V75L75 12.5H112.5L137.5 37.5Z" fill="url(#paint1_linear_359_269)" fill-opacity="0.2"/>
<path d="M137.5 112.5V75L75 137.5H112.5L137.5 112.5Z" fill="white" fill-opacity="0.02"/>
<path d="M137.5 112.5V75L75 137.5H112.5L137.5 112.5Z" fill="url(#paint2_linear_359_269)" fill-opacity="0.2"/>
<path d="M12.5 112.5V75L75 137.5H37.5L12.5 112.5Z" fill="white" fill-opacity="0.02"/>
<path d="M12.5 112.5V75L75 137.5H37.5L12.5 112.5Z" fill="url(#paint3_linear_359_269)" fill-opacity="0.2"/>
<path d="M12.5 37.5V75L75 12.5H37.5L12.5 37.5Z" fill="white" fill-opacity="0.02"/>
<path d="M12.5 37.5V75L75 12.5H37.5L12.5 37.5Z" fill="url(#paint4_linear_359_269)" fill-opacity="0.2"/>
</g>
<defs>
<filter id="filter0_i_359_269" x="12.5" y="12.5" width="125" height="125" filterUnits="userSpaceOnUse" color-interpolation-filters="sRGB">
<feFlood flood-opacity="0" result="BackgroundImageFix"/>
<feBlend mode="normal" in="SourceGraphic" in2="BackgroundImageFix" result="shape"/>
<feColorMatrix in="SourceAlpha" type="matrix" values="0 0 0 0 0 0 0 0 0 0 0 0 0 0 0 0 0 0 127 0" result="hardAlpha"/>
<feOffset/>
<feGaussianBlur stdDeviation="6"/>
<feComposite in2="hardAlpha" operator="arithmetic" k2="-1" k3="1"/>
<feColorMatrix type="matrix" values="0 0 0 0 1 0 0 0 0 1 0 0 0 0 1 0 0 0 0.2 0"/>
<feBlend mode="normal" in2="shape" result="effect1_innerShadow_359_269"/>
</filter>
<linearGradient id="paint0_linear_359_269" x1="75" y1="-47.6086" x2="75" y2="137.5" gradientUnits="userSpaceOnUse">
<stop stop-color="white"/>
<stop offset="0.773658" stop-color="white" stop-opacity="0"/>
</linearGradient>
<linearGradient id="paint1_linear_359_269" x1="75" y1="-47.6086" x2="75" y2="137.5" gradientUnits="userSpaceOnUse">
<stop stop-color="white"/>
<stop offset="0.773658" stop-color="white" stop-opacity="0"/>
</linearGradient>
<linearGradient id="paint2_linear_359_269" x1="75" y1="-47.6086" x2="75" y2="137.5" gradientUnits="userSpaceOnUse">
<stop stop-color="white"/>
<stop offset="0.773658" stop-color="white" stop-opacity="0"/>
</linearGradient>
<linearGradient id="paint3_linear_359_269" x1="75" y1="-47.6086" x2="75" y2="137.5" gradientUnits="userSpaceOnUse">
<stop stop-color="white"/>
<stop offset="0.773658" stop-color="white" stop-opacity="0"/>
</linearGradient>
<linearGradient id="paint4_linear_359_269" x1="75" y1="-47.6086" x2="75" y2="137.5" gradientUnits="userSpaceOnUse">
<stop stop-color="white"/>
<stop offset="0.773658" stop-color="white" stop-opacity="0"/>
</linearGradient>
</defs>
</svg>
